<svg width="13" height="13" viewBox="0 0 13 13" fill="none" xmlns="http://www.w3.org/2000/svg">
<g clip-path="url(#clip0_54_4672)">
<path d="M13 2.38333L10.6167 0C10.6167 0 6.71667 4.11667 6.5 4.11667C6.28333 4.11667 2.38333 0 2.38333 0L0 2.38333C0 2.38333 4.11667 6.175 4.11667 6.5C4.11667 6.825 0 10.6167 0 10.6167L2.38333 13C2.38333 13 6.175 8.88333 6.5 8.88333C6.825 8.88333 10.6167 13 10.6167 13L13 10.6167C13 10.6167 8.88333 6.825 8.88333 6.5C8.88333 6.28333 13 2.38333 13 2.38333Z" fill="white"/>
</g>
<defs>
<clipPath id="clip0_54_4672">
<rect width="13" height="13" fill="white"/>
</clipPath>
</defs>
</svg>
