<svg width="15" height="15" viewBox="0 0 15 15" fill="none" xmlns="http://www.w3.org/2000/svg">
<g clip-path="url(#clip0_124_1076)">
<path fill-rule="evenodd" clip-rule="evenodd" d="M13.2353 0V15H14.1176V0H13.2353ZM7.05879 0V15H7.94115V0H7.05879ZM0.882324 0V15H1.76468V0H0.882324Z" fill="black"/>
<path d="M7.50004 6.17648C8.23101 6.17648 8.82357 5.58391 8.82357 4.85295C8.82357 4.12198 8.23101 3.52942 7.50004 3.52942C6.76908 3.52942 6.17651 4.12198 6.17651 4.85295C6.17651 5.58391 6.76908 6.17648 7.50004 6.17648Z" fill="black"/>
<path d="M1.32353 12.353C2.05449 12.353 2.64706 11.7604 2.64706 11.0295C2.64706 10.2985 2.05449 9.70593 1.32353 9.70593C0.592564 9.70593 0 10.2985 0 11.0295C0 11.7604 0.592564 12.353 1.32353 12.353Z" fill="black"/>
<path d="M13.6764 12.353C14.4074 12.353 15 11.7604 15 11.0295C15 10.2985 14.4074 9.70593 13.6764 9.70593C12.9455 9.70593 12.3529 10.2985 12.3529 11.0295C12.3529 11.7604 12.9455 12.353 13.6764 12.353Z" fill="black"/>
</g>
<defs>
<clipPath id="clip0_124_1076">
<rect width="15" height="15" fill="white"/>
</clipPath>
</defs>
</svg>
