<svg width="45" height="19" viewBox="0 0 45 19" fill="none" xmlns="http://www.w3.org/2000/svg">
<g id="dark_gpay.svg" clip-path="url(#clip0_54_4970)">
<g id="Group">
<path id="Vector" fill-rule="evenodd" clip-rule="evenodd" d="M21.2938 3.58998V7.91316H23.9599C24.5952 7.91316 25.1204 7.69927 25.5354 7.27257C25.9621 6.84692 26.176 6.33869 26.176 5.75104C26.176 5.17504 25.9621 4.67316 25.5354 4.24539C25.1204 3.8081 24.5952 3.58892 23.9599 3.58892L21.2938 3.58998ZM21.2938 9.43469V14.4493H19.7013V2.06845H23.926C24.9986 2.06845 25.9092 2.42527 26.6599 3.13998C27.4222 3.85469 27.8034 4.72504 27.8034 5.75104C27.8034 6.80033 27.4222 7.67704 26.6599 8.37904C25.9219 9.08316 25.0092 9.43363 23.9249 9.43363L21.2938 9.43469ZM29.4128 11.8562C29.4128 12.2713 29.5886 12.6165 29.9412 12.8939C30.2927 13.1692 30.7056 13.3079 31.1779 13.3079C31.8481 13.3079 32.4442 13.0601 32.9694 12.5656C33.4956 12.069 33.7572 11.4867 33.7572 10.8186C33.2606 10.4268 32.5681 10.2309 31.6798 10.2309C31.0339 10.2309 30.4939 10.3876 30.0619 10.6989C29.6288 11.0102 29.4128 11.3946 29.4128 11.8562ZM31.4733 5.69916C32.6507 5.69916 33.5793 6.01363 34.2612 6.64151C34.9409 7.27045 35.2819 8.13233 35.2819 9.22716V14.4493H33.7582V13.274H33.6894C33.0308 14.2417 32.1541 14.7267 31.0572 14.7267C30.1233 14.7267 29.3408 14.4493 28.7119 13.8966C28.0829 13.3428 27.7685 12.6514 27.7685 11.8213C27.7685 10.9446 28.0999 10.2479 28.7638 9.72904C29.4276 9.21022 30.3128 8.9508 31.4214 8.9508C32.3659 8.9508 33.1462 9.12339 33.7572 9.46963V9.10539C33.7572 8.55269 33.538 8.08257 33.0996 7.69716C32.6773 7.3171 32.1272 7.11028 31.5591 7.11798C30.6696 7.11798 29.9666 7.49174 29.4467 8.24245L28.0448 7.35939C28.8178 6.25292 29.9613 5.69916 31.4733 5.69916ZM44.0235 5.97657L38.7082 18.1848H37.0639L39.0375 13.9135L35.5413 5.97657H37.2725L39.7999 12.0637H39.8338L42.2924 5.97551L44.0235 5.97657Z" fill="white"/>
<path id="Vector_2" fill-rule="evenodd" clip-rule="evenodd" d="M14.8582 8.35364C14.8582 7.85282 14.8158 7.36893 14.7354 6.90729H8.01819V9.64752H11.866C11.7871 10.0854 11.6204 10.5027 11.3758 10.8743C11.1312 11.2459 10.8138 11.5641 10.4429 11.8096V13.5885H12.7395C14.0842 12.3496 14.8582 10.5179 14.8582 8.35364Z" fill="#4285F4"/>
<path id="Vector_3" fill-rule="evenodd" clip-rule="evenodd" d="M8.01819 15.3059C9.94102 15.3059 11.5589 14.6759 12.7395 13.5895L10.4429 11.8096C9.80443 12.2395 8.98172 12.4905 8.01819 12.4905C6.16102 12.4905 4.58337 11.2389 4.02007 9.55328H1.65466V11.3861C2.24806 12.565 3.15728 13.5558 4.28091 14.2481C5.40454 14.9404 6.6984 15.307 8.01819 15.3069" fill="#34A853"/>
<path id="Vector_4" fill-rule="evenodd" clip-rule="evenodd" d="M4.0201 9.55328C3.72296 8.66983 3.72296 7.71343 4.0201 6.82999V4.99716H1.65469C1.15464 5.98735 0.894571 7.08129 0.89551 8.19057C0.89551 9.3394 1.1708 10.4247 1.65469 11.385L4.0201 9.55222V9.55328Z" fill="#FABB05"/>
<path id="Vector_5" fill-rule="evenodd" clip-rule="evenodd" d="M8.01823 3.8928C9.06859 3.8928 10.0088 4.2528 10.75 4.9601V4.96116L12.7829 2.93033C11.5505 1.78257 9.94106 1.07739 8.01929 1.07739C6.69961 1.07722 5.40582 1.44362 4.2822 2.13574C3.15858 2.82786 2.2493 3.81849 1.65576 4.99716L4.02117 6.82998C4.58447 5.14433 6.16106 3.8928 8.01823 3.8928Z" fill="#E94235"/>
</g>
</g>
<defs>
<clipPath id="clip0_54_4970">
<rect width="43.4118" height="18" fill="white" transform="translate(0.619141 0.799988)"/>
</clipPath>
</defs>
</svg>
