<svg xmlns="http://www.w3.org/2000/svg" xmlns:xlink="http://www.w3.org/1999/xlink" viewBox="0 0 836.8 221.59"><defs><style>.cls-1{fill:url(#Безымянный_градиент_13);}.cls-2{fill:url(#Безымянный_градиент_13-2);}.cls-3{fill:url(#Безымянный_градиент_13-3);}.cls-4{fill:url(#Безымянный_градиент_13-4);}.cls-5{fill:url(#Безымянный_градиент_13-5);}.cls-6{fill:url(#Безымянный_градиент_13-6);}.cls-7{fill:url(#Безымянный_градиент_13-7);}.cls-8{fill:url(#Безымянный_градиент_13-8);}.cls-9{fill:url(#Безымянный_градиент_13-9);}.cls-10{fill:url(#Безымянный_градиент_13-10);}.cls-11{fill:url(#Безымянный_градиент_13-11);}.cls-12{fill:none;stroke-miterlimit:10;stroke-width:3px;stroke:url(#Безымянный_градиент_13-12);}.cls-13{fill:url(#Безымянный_градиент_13-13);}</style><linearGradient id="Безымянный_градиент_13" x1="203.96" y1="-41.54" x2="315.07" y2="150.9" gradientTransform="matrix(1, 0, 0, -1, 0, 179.3)" gradientUnits="userSpaceOnUse"><stop offset="0" stop-color="#a1a3a6"/><stop offset="0.17" stop-color="#a9abae"/><stop offset="0.44" stop-color="#bfc0c2"/><stop offset="0.77" stop-color="#e2e3e4"/><stop offset="1" stop-color="#fff"/></linearGradient><linearGradient id="Безымянный_градиент_13-2" x1="232.78" y1="-58.18" x2="343.89" y2="134.26" xlink:href="#Безымянный_градиент_13"/><linearGradient id="Безымянный_градиент_13-3" x1="259.56" y1="-73.63" x2="370.67" y2="118.81" xlink:href="#Безымянный_градиент_13"/><linearGradient id="Безымянный_градиент_13-4" x1="283.29" y1="-87.34" x2="394.4" y2="105.1" xlink:href="#Безымянный_градиент_13"/><linearGradient id="Безымянный_градиент_13-5" x1="311.09" y1="-103.39" x2="422.2" y2="89.05" xlink:href="#Безымянный_градиент_13"/><linearGradient id="Безымянный_градиент_13-6" x1="343.57" y1="-122.14" x2="454.68" y2="70.3" xlink:href="#Безымянный_градиент_13"/><linearGradient id="Безымянный_градиент_13-7" x1="373.45" y1="-139.4" x2="484.56" y2="53.04" xlink:href="#Безымянный_градиент_13"/><linearGradient id="Безымянный_градиент_13-8" x1="413.58" y1="-162.56" x2="524.69" y2="29.88" xlink:href="#Безымянный_градиент_13"/><linearGradient id="Безымянный_градиент_13-9" x1="440.75" y1="-178.25" x2="551.86" y2="14.19" xlink:href="#Безымянный_градиент_13"/><linearGradient id="Безымянный_градиент_13-10" x1="469.62" y1="-194.92" x2="580.73" y2="-2.48" xlink:href="#Безымянный_градиент_13"/><linearGradient id="Безымянный_градиент_13-11" x1="495.36" y1="-209.78" x2="606.47" y2="-17.34" xlink:href="#Безымянный_градиент_13"/><linearGradient id="Безымянный_градиент_13-12" x1="370.78" y1="-21.93" x2="458.03" y2="129.19" xlink:href="#Безымянный_градиент_13"/><linearGradient id="Безымянный_градиент_13-13" x1="302.34" y1="-48.84" x2="534.42" y2="353.12" xlink:href="#Безымянный_градиент_13"/></defs><g id="Слой_2" data-name="Слой 2"><g id="Слой_1-2" data-name="Слой 1"><path d="M207.17,221.22h-2.55V197.1h2.55Zm8.54-7.81h-10v-2.34h9.76a7.46,7.46,0,0,0,4.86-1.37c1.1-.91,1.66-2.4,1.66-4.46a5.44,5.44,0,0,0-1.66-4.41,7.42,7.42,0,0,0-4.86-1.39h-9.76V197.1h10a10.72,10.72,0,0,1,4.6,1,7.25,7.25,0,0,1,3.15,2.78,9.1,9.1,0,0,1,0,8.82,7.33,7.33,0,0,1-3.15,2.79A10.42,10.42,0,0,1,215.71,213.41Z"/><path d="M242.52,221.22H240V197.1h2.55Zm15.77-21.78H240.83V197.1h17.46Zm-.54,10.8H240.83v-2.3h16.92Zm.54,11H240.83V218.9h17.46Z"/><path d="M277,221.22h-2.55V197.1h11.8a11,11,0,0,1,4.43.83,6.79,6.79,0,0,1,3,2.37,6.57,6.57,0,0,1,1.06,3.78,6.45,6.45,0,0,1-.93,3.53,6.23,6.23,0,0,1-2.59,2.29,9.51,9.51,0,0,1-3.93.88V211a4.4,4.4,0,0,1,2,1.08,8.52,8.52,0,0,1,1.36,1.8l4.54,7.38h-3l-4.29-7a6.8,6.8,0,0,0-1.31-1.57,4.43,4.43,0,0,0-1.73-.94,9.78,9.78,0,0,0-2.64-.3H277Zm0-21.78v9.86h9.22a7,7,0,0,0,4.34-1.17,5.46,5.46,0,0,0,0-7.5,6.89,6.89,0,0,0-4.34-1.19Z"/><path d="M313.23,221.22h-2.56V197.1h2.56Zm15.51-21.78h-17.2V197.1h17.2ZM328.2,211H311.54v-2.31H328.2Z"/><path d="M355.46,221.58a12.71,12.71,0,0,1-5.78-1.21,8.62,8.62,0,0,1-3.76-3.51,11,11,0,0,1-1.34-5.61V197.1h2.56v14a9.7,9.7,0,0,0,.92,4.5,5.59,5.59,0,0,0,2.75,2.59,13.37,13.37,0,0,0,9.29,0,5.59,5.59,0,0,0,2.75-2.59,9.58,9.58,0,0,0,.92-4.5v-14h2.6v14.15a11.07,11.07,0,0,1-1.33,5.61,8.7,8.7,0,0,1-3.77,3.51A12.67,12.67,0,0,1,355.46,221.58Z"/><path d="M385.62,221.22h-2.55V197.1h3.49l8.1,15.73,2.12,4.47H397l2.09-4.47,8.07-15.73h3.52v24.12h-2.55v-17l.07-3.24h-.22l-1.51,3.24-8,15.55h-3.09l-8-15.55L385.79,201h-.18l.07,3.24Z"/><path d="M430.08,221.22h-2.55V197.1h2.55Zm15.77-21.78H428.37V197.1h17.46Zm-.54,10.8H428.37v-2.3h16.92Zm.54,11H428.37V218.9h17.46Z"/><path d="M490.6,221.58a14.27,14.27,0,0,1-5.85-1,7.42,7.42,0,0,1-3.44-2.87,7.63,7.63,0,0,1-1.12-4.08v-.22h2.6v.47a5.19,5.19,0,0,0,.77,2.92,4.78,4.78,0,0,0,2.5,1.8,14,14,0,0,0,4.54.61,15.38,15.38,0,0,0,4-.43,4.38,4.38,0,0,0,2.28-1.35,4,4,0,0,0-.48-5.22,10,10,0,0,0-3.91-1.46l-5.11-1a17,17,0,0,1-3.55-1.12,6.25,6.25,0,0,1-2.55-2,5.29,5.29,0,0,1-1-3.29,5.56,5.56,0,0,1,.56-2.4,6.28,6.28,0,0,1,1.71-2.12,8.49,8.49,0,0,1,3-1.51,15.5,15.5,0,0,1,4.44-.56,12.58,12.58,0,0,1,5.58,1.08,7.5,7.5,0,0,1,3.21,2.9,8,8,0,0,1,1,4V205h-2.59v-.43a5.43,5.43,0,0,0-.76-2.94,4.66,4.66,0,0,0-2.37-1.82,12.74,12.74,0,0,0-4.29-.61,14.4,14.4,0,0,0-3.92.45,4.6,4.6,0,0,0-2.29,1.33,3.38,3.38,0,0,0-.74,2.22,3.82,3.82,0,0,0,.56,2.16,3.6,3.6,0,0,0,1.69,1.29,18.26,18.26,0,0,0,2.9.87l5.08,1a14.41,14.41,0,0,1,3.74,1.18,6.36,6.36,0,0,1,2.47,2.07,5.43,5.43,0,0,1,.88,3.15,5.84,5.84,0,0,1-1,3.24,7,7,0,0,1-3.07,2.54A13.62,13.62,0,0,1,490.6,221.58Z"/><path d="M518.68,221.22h-2.56V197.1h2.56Zm16.7-11H517.09v-2.34h18.28Zm1.37,11h-2.56V197.1h2.56Z"/><path d="M564.9,221.58a12.79,12.79,0,0,1-6.32-1.53,10.9,10.9,0,0,1-4.3-4.32,14.68,14.68,0,0,1,0-13.14,10.9,10.9,0,0,1,4.3-4.32,13.92,13.92,0,0,1,12.69,0,11,11,0,0,1,4.3,4.32,14.55,14.55,0,0,1,0,13.14,11,11,0,0,1-4.3,4.32A12.87,12.87,0,0,1,564.9,221.58Zm0-2.48a10.85,10.85,0,0,0,5.19-1.14,7.4,7.4,0,0,0,3.28-3.31,13.84,13.84,0,0,0,0-11,7.53,7.53,0,0,0-3.23-3.33,11,11,0,0,0-5.19-1.14,10.84,10.84,0,0,0-5.15,1.14,7.46,7.46,0,0,0-3.22,3.33,14.07,14.07,0,0,0,0,10.92,7.46,7.46,0,0,0,3.22,3.35A10.77,10.77,0,0,0,564.9,219.1Z"/><path d="M595.72,221.22h-2.56V197.1h2.56Zm8.53-7.81h-10v-2.34H604a7.46,7.46,0,0,0,4.86-1.37q1.67-1.37,1.66-4.46a5.4,5.4,0,0,0-1.66-4.41,7.42,7.42,0,0,0-4.86-1.39h-9.75V197.1h10a10.77,10.77,0,0,1,4.61,1,7.37,7.37,0,0,1,3.15,2.78,9.15,9.15,0,0,1,0,8.82,7.46,7.46,0,0,1-3.15,2.79A10.47,10.47,0,0,1,604.25,213.41Z"/><path class="cls-1" d="M207.17,221.22h-2.55V197.1h2.55Zm8.54-7.81h-10v-2.34h9.76a7.46,7.46,0,0,0,4.86-1.37c1.1-.91,1.66-2.4,1.66-4.46a5.44,5.44,0,0,0-1.66-4.41,7.42,7.42,0,0,0-4.86-1.39h-9.76V197.1h10a10.72,10.72,0,0,1,4.6,1,7.25,7.25,0,0,1,3.15,2.78,9.1,9.1,0,0,1,0,8.82,7.33,7.33,0,0,1-3.15,2.79A10.42,10.42,0,0,1,215.71,213.41Z"/><path class="cls-2" d="M242.52,221.22H240V197.1h2.55Zm15.77-21.78H240.83V197.1h17.46Zm-.54,10.8H240.83v-2.3h16.92Zm.54,11H240.83V218.9h17.46Z"/><path class="cls-3" d="M277,221.22h-2.55V197.1h11.8a11,11,0,0,1,4.43.83,6.79,6.79,0,0,1,3,2.37,6.57,6.57,0,0,1,1.06,3.78,6.45,6.45,0,0,1-.93,3.53,6.23,6.23,0,0,1-2.59,2.29,9.51,9.51,0,0,1-3.93.88V211a4.4,4.4,0,0,1,2,1.08,8.52,8.52,0,0,1,1.36,1.8l4.54,7.38h-3l-4.29-7a6.8,6.8,0,0,0-1.31-1.57,4.43,4.43,0,0,0-1.73-.94,9.78,9.78,0,0,0-2.64-.3H277Zm0-21.78v9.86h9.22a7,7,0,0,0,4.34-1.17,5.46,5.46,0,0,0,0-7.5,6.89,6.89,0,0,0-4.34-1.19Z"/><path class="cls-4" d="M313.23,221.22h-2.56V197.1h2.56Zm15.51-21.78h-17.2V197.1h17.2ZM328.2,211H311.54v-2.31H328.2Z"/><path class="cls-5" d="M355.46,221.58a12.71,12.71,0,0,1-5.78-1.21,8.62,8.62,0,0,1-3.76-3.51,11,11,0,0,1-1.34-5.61V197.1h2.56v14a9.7,9.7,0,0,0,.92,4.5,5.59,5.59,0,0,0,2.75,2.59,13.37,13.37,0,0,0,9.29,0,5.59,5.59,0,0,0,2.75-2.59,9.58,9.58,0,0,0,.92-4.5v-14h2.6v14.15a11.07,11.07,0,0,1-1.33,5.61,8.7,8.7,0,0,1-3.77,3.51A12.67,12.67,0,0,1,355.46,221.58Z"/><path class="cls-6" d="M385.62,221.22h-2.55V197.1h3.49l8.1,15.73,2.12,4.47H397l2.09-4.47,8.07-15.73h3.52v24.12h-2.55v-17l.07-3.24h-.22l-1.51,3.24-8,15.55h-3.09l-8-15.55L385.79,201h-.18l.07,3.24Z"/><path class="cls-7" d="M430.08,221.22h-2.55V197.1h2.55Zm15.77-21.78H428.37V197.1h17.46Zm-.54,10.8H428.37v-2.3h16.92Zm.54,11H428.37V218.9h17.46Z"/><path class="cls-8" d="M490.6,221.58a14.27,14.27,0,0,1-5.85-1,7.42,7.42,0,0,1-3.44-2.87,7.63,7.63,0,0,1-1.12-4.08v-.22h2.6v.47a5.19,5.19,0,0,0,.77,2.92,4.78,4.78,0,0,0,2.5,1.8,14,14,0,0,0,4.54.61,15.38,15.38,0,0,0,4-.43,4.38,4.38,0,0,0,2.28-1.35,4,4,0,0,0-.48-5.22,10,10,0,0,0-3.91-1.46l-5.11-1a17,17,0,0,1-3.55-1.12,6.25,6.25,0,0,1-2.55-2,5.29,5.29,0,0,1-1-3.29,5.56,5.56,0,0,1,.56-2.4,6.28,6.28,0,0,1,1.71-2.12,8.49,8.49,0,0,1,3-1.51,15.5,15.5,0,0,1,4.44-.56,12.58,12.58,0,0,1,5.58,1.08,7.5,7.5,0,0,1,3.21,2.9,8,8,0,0,1,1,4V205h-2.59v-.43a5.43,5.43,0,0,0-.76-2.94,4.66,4.66,0,0,0-2.37-1.82,12.74,12.74,0,0,0-4.29-.61,14.4,14.4,0,0,0-3.92.45,4.6,4.6,0,0,0-2.29,1.33,3.38,3.38,0,0,0-.74,2.22,3.82,3.82,0,0,0,.56,2.16,3.6,3.6,0,0,0,1.69,1.29,18.26,18.26,0,0,0,2.9.87l5.08,1a14.41,14.41,0,0,1,3.74,1.18,6.36,6.36,0,0,1,2.47,2.07,5.43,5.43,0,0,1,.88,3.15,5.84,5.84,0,0,1-1,3.24,7,7,0,0,1-3.07,2.54A13.62,13.62,0,0,1,490.6,221.58Z"/><path class="cls-9" d="M518.68,221.22h-2.56V197.1h2.56Zm16.7-11H517.09v-2.34h18.28Zm1.37,11h-2.56V197.1h2.56Z"/><path class="cls-10" d="M564.9,221.58a12.79,12.79,0,0,1-6.32-1.53,10.9,10.9,0,0,1-4.3-4.32,14.68,14.68,0,0,1,0-13.14,10.9,10.9,0,0,1,4.3-4.32,13.92,13.92,0,0,1,12.69,0,11,11,0,0,1,4.3,4.32,14.55,14.55,0,0,1,0,13.14,11,11,0,0,1-4.3,4.32A12.87,12.87,0,0,1,564.9,221.58Zm0-2.48a10.85,10.85,0,0,0,5.19-1.14,7.4,7.4,0,0,0,3.28-3.31,13.84,13.84,0,0,0,0-11,7.53,7.53,0,0,0-3.23-3.33,11,11,0,0,0-5.19-1.14,10.84,10.84,0,0,0-5.15,1.14,7.46,7.46,0,0,0-3.22,3.33,14.07,14.07,0,0,0,0,10.92,7.46,7.46,0,0,0,3.22,3.35A10.77,10.77,0,0,0,564.9,219.1Z"/><path class="cls-11" d="M595.72,221.22h-2.56V197.1h2.56Zm8.53-7.81h-10v-2.34H604a7.46,7.46,0,0,0,4.86-1.37q1.67-1.37,1.66-4.46a5.4,5.4,0,0,0-1.66-4.41,7.42,7.42,0,0,0-4.86-1.39h-9.75V197.1h10a10.77,10.77,0,0,1,4.61,1,7.37,7.37,0,0,1,3.15,2.78,9.15,9.15,0,0,1,0,8.82,7.46,7.46,0,0,1-3.15,2.79A10.47,10.47,0,0,1,604.25,213.41Z"/><line class="cls-12" x1="242.5" y1="125.67" x2="586.31" y2="125.67"/><path class="cls-13" d="M0,.77H9.5V49.58h33v4H0Zm51.15,0h46.1v4H60.65V23.33H93v3.92H60.65V49.58h36.6v4H51.15Zm68.13,50.32A23.42,23.42,0,0,1,109,41.74a28.14,28.14,0,0,1-3.61-14.49,28.59,28.59,0,0,1,3.54-14.53,23.59,23.59,0,0,1,10.15-9.43A35.13,35.13,0,0,1,134.79,0q11,0,18,4.72a18.65,18.65,0,0,1,8.37,12.92h-7.93a15.88,15.88,0,0,0-6-10.11Q142.51,4,135,4q-9.43,0-14.75,6.11T115,27.1q0,11,5.36,17.1t15,6.07a31.37,31.37,0,0,0,8.07-1,26.85,26.85,0,0,0,7.17-3V29.59H132.18V25.82H160v20.9a28.69,28.69,0,0,1-10.65,5.66,48.25,48.25,0,0,1-14.07,2A36.26,36.26,0,0,1,119.28,51.09ZM172.63.77h46.1v4h-36.6V23.33H214.5v3.92H182.13V49.58h36.6v4h-46.1Zm55.6,0h9.51L268.14,40V.77h8.46V53.58h-5.43L236.68,9.14V53.58h-8.45Zm61.42,0h21.28q15.09,0,22.93,6.48t7.85,19q0,13.2-7.85,20.26t-22.49,7.07H289.65Zm22.78,48.81c6.4,0,11.28-2,14.68-6s5.09-9.76,5.09-17.35q0-10.56-5-16T312.44,4.76H299.16V49.57ZM388,40H358.76l-6.71,13.58h-6.49L373,0h5.51l25.84,53.57h-10Zm-1.89-4L373.85,9.59,360.8,36Zm49-35.23h20.72q11.17,0,17.31,3.92t6.19,12.38q0,16.21-23.47,16.22H444.63V53.58h-9.51ZM456,29.29q6.86,0,10.37-2.87t3.51-9.35q0-6.5-3.51-9.4T456,4.77H444.63V29.29ZM520.11,40H490.8l-6.71,13.58H477.6L505.06,0h5.51l25.88,53.57H526.37Zm-1.89-4L505.92,9.59,492.92,36Zm71.37,13.58q1.44,2.73,2.79,3.25v.75h-9.66q-2.4-2.71-4.82-9.35a42.78,42.78,0,0,0-4-8.46,9.22,9.22,0,0,0-5.09-3.92H554.1V53.58h-9.51V.77h22.56q23.4,0,23.39,15.54,0,11.54-13,14.56A13.81,13.81,0,0,1,582.41,35a34.16,34.16,0,0,1,3.88,7.28q1.85,4.6,3.27,7.32ZM554.13,27.93h13.13q6.63,0,10.26-2.68c2.42-1.79,3.62-4.76,3.62-8.94s-1.2-7.08-3.62-8.87-5.84-2.67-10.26-2.67H554.1ZM600.68.77h44.69v4H610.16V23.33h30.21v3.92H610.16V53.58h-9.51Zm58.51,47.6q-5.85-6-5.84-16.75V.77h9.5V33.36c0,5.39,1.23,9.56,3.66,12.53s6.55,4.45,12.34,4.45,9.76-1.46,12.22-4.38,3.7-7.12,3.7-12.6V.77h9.5V31.65q0,10.8-5.8,16.75t-19.62,6q-13.85-.06-19.69-6ZM777.7.77V53.58h-9.51V11.48l-19,42.1h-5.06L722.78,10.8V53.58h-5.51V.77h10.3L748.47,43,767.56.77Zm13,0h46.1v4H800.15V23.33h32.37v3.92H800.15V49.58h36.59v4h-46.1Z"/></g></g></svg>