<svg width="108" height="95" viewBox="0 0 108 95" fill="none" xmlns="http://www.w3.org/2000/svg">
<g clip-path="url(#clip0_1_1184)">
<path d="M34.7329 14.1844C34.6233 14.4171 34.4041 14.5267 34.2261 14.6773C32.1439 16.4982 30.4178 18.6067 29.1576 21.0712C27.8288 23.6726 27.1439 26.4246 27.2535 29.3545C27.363 32.1613 27.911 34.8722 29.1302 37.4188C31.2809 41.9507 34.7603 44.9902 39.4863 46.6058C42.2124 47.5368 45.0206 47.8654 47.8973 47.7011C51.9658 47.4684 55.637 46.1266 58.8699 43.6485C62.5137 40.8691 64.7877 37.1998 65.7603 32.7226C66.1165 31.066 66.2398 29.3956 66.2398 27.6979C66.2398 27.3556 66.322 27.0681 66.5137 26.7805C67.0617 25.9591 67.5822 25.1239 68.1165 24.3024C68.1576 24.2339 68.1987 24.1381 68.3357 24.1518C68.3768 24.3298 68.4316 24.5078 68.4727 24.6857C68.774 26.3424 68.9521 28.0265 68.8699 29.7105C68.5685 35.7485 66.2261 40.8554 61.8151 44.9765C58.6507 47.9339 54.911 49.7959 50.6507 50.5763C43.185 51.9592 35.5548 49.5495 30.3083 44.0729C27.2672 40.8828 25.2672 37.1313 24.5274 32.7911C23.3356 25.6441 25.2124 19.3598 30.0617 13.979C30.1439 13.8832 30.2124 13.7599 30.363 13.7462C30.4178 14.0201 30.637 14.1296 30.8836 14.157C31.0617 14.1707 31.2261 14.1707 31.4041 14.1707C32.5137 14.1707 33.6233 14.1844 34.7329 14.1844Z" fill="#B1B3B6"/>
<path d="M34.7329 14.1844C33.6233 14.1844 32.5137 14.1707 31.4041 14.1707C31.2261 14.1707 31.048 14.1844 30.8836 14.157C30.637 14.1296 30.4178 14.0338 30.363 13.7463C30.8562 13.1849 31.4041 12.6646 31.9932 12.1991C32.0754 12.2265 32.1165 12.1854 32.1028 12.1033C33.185 11.1723 34.363 10.3508 35.637 9.69357C35.7192 9.72095 35.7603 9.69357 35.774 9.61142L35.8151 9.59773C35.9247 9.63881 36.0069 9.59773 36.0206 9.47451L36.0617 9.46082C36.1713 9.50189 36.2535 9.46082 36.2808 9.33759L36.3219 9.3239C36.4315 9.36498 36.5137 9.3239 36.5411 9.21437L36.5822 9.20068C36.6918 9.24175 36.774 9.20068 36.8014 9.09115L36.8425 9.07745C36.9932 9.11853 37.1165 9.07745 37.185 8.92685L37.1987 8.91316C37.3219 8.95423 37.4041 8.91316 37.4452 8.80362C37.5411 8.76255 37.637 8.72148 37.7466 8.6804C37.8562 8.72148 37.9521 8.69409 37.9932 8.57087C38.0343 8.55718 38.0754 8.54349 38.1165 8.52979C38.2398 8.57087 38.3219 8.52979 38.3767 8.42026L38.4041 8.40657C38.5548 8.46134 38.6781 8.42026 38.7603 8.26966H38.7877C38.9384 8.32442 39.0754 8.28335 39.1576 8.14643H39.1713C39.2945 8.18751 39.3767 8.16012 39.4315 8.05059C39.4726 8.0369 39.5137 8.0369 39.5685 8.02321C39.7329 8.07798 39.8562 8.05059 39.9521 7.89999H39.9795C40.1302 7.95475 40.2671 7.92737 40.3493 7.79046H40.3904C40.5822 7.83153 40.7466 7.83153 40.8836 7.65354H40.911C41.1028 7.70831 41.2809 7.69461 41.4178 7.53032C42.1302 7.32494 42.8699 7.21541 43.6096 7.11957C43.9521 7.0785 44.3082 7.05112 44.6644 6.94158C44.6644 6.69514 44.6644 6.44869 44.6644 6.21593C44.6507 5.80519 44.6507 5.38075 44.637 4.97001C44.2398 4.77833 43.8288 4.94263 43.4178 4.87417C43.3767 4.87417 43.3356 4.83309 43.2808 4.80571C43.2398 4.35389 43.3767 3.91576 43.4178 3.46395C43.5274 2.42339 43.6781 1.38284 43.8151 0.342287C43.8562 0.0410744 43.8836 0.0136915 44.185 0C45.6096 0 47.0343 0 48.4589 0C48.7466 0 48.7603 0.0136915 48.8288 0.342287C49.048 1.32807 49.2535 2.31386 49.4589 3.29965C49.5685 3.80623 49.7329 4.31282 49.7466 4.84679C49.3904 4.92893 49.0343 4.86048 48.6918 4.88786C48.5959 4.90155 48.5274 4.94263 48.5274 5.05216C48.5137 5.2986 48.5137 5.53136 48.5137 5.77781C48.5274 6.17486 48.4726 6.55822 48.5548 6.95527C48.911 7.13326 49.3083 7.10588 49.6918 7.16065C52.8973 7.62616 55.8699 8.72147 58.5959 10.4603C58.6644 10.5014 58.7329 10.5698 58.8014 10.6246C58.8151 10.6383 58.8151 10.6657 58.8151 10.693C58.774 10.7204 58.7192 10.7752 58.6644 10.7889C57.7192 11.0764 56.774 11.3365 55.8425 11.6378C55.6096 11.7062 55.4315 11.6788 55.2261 11.5967C54.6507 11.3502 54.0617 11.0901 53.4726 10.8573C51.7192 10.1728 49.8973 9.85787 48.0206 9.78941C47.5548 9.77572 47.1028 9.77572 46.637 9.77572C44.363 9.72095 42.2124 10.2138 40.1165 11.0627C38.3904 11.7747 36.7877 12.7057 35.3082 13.8421C35.1165 13.9105 34.9247 14.0475 34.7329 14.1844Z" fill="white"/>
<path d="M27.8425 57.915C27.637 58.1477 27.4315 58.3668 27.2397 58.5996C25.5 60.5848 25.9109 63.46 27.1164 64.9798C27.8425 65.8971 28.774 66.4448 29.9247 66.6365C30.9657 66.8008 31.9794 66.7323 32.952 66.3489C34.1986 65.856 34.9521 64.9113 35.3767 63.6654C35.3904 63.6243 35.3767 63.5833 35.3767 63.5422C35.3767 63.5148 35.363 63.5011 35.3493 63.4737C35.1438 63.3779 34.9247 63.419 34.7055 63.419C33.2123 63.419 31.7329 63.419 30.2397 63.419C30.0616 63.419 29.8836 63.419 29.7192 63.4053C29.6233 63.4053 29.5411 63.3368 29.5411 63.241C29.5274 62.8028 29.5274 62.3647 29.5411 61.9266C29.5411 61.8307 29.6233 61.776 29.7192 61.7623C29.8562 61.7486 29.9794 61.7486 30.1164 61.7486C32.363 61.7486 34.6233 61.7486 36.8699 61.7486C36.9794 61.7486 37.089 61.7486 37.1986 61.7486C37.4452 61.7623 37.5 61.8171 37.4863 62.0772C37.3493 63.5422 36.9521 64.9113 36.0342 66.0888C35.2397 67.102 34.2123 67.7865 32.9657 68.1151C31.6918 68.4437 30.4178 68.4985 29.1301 68.1836C26.7055 67.5812 25.1712 66.034 24.4863 63.6517C24.1027 62.2826 24.1164 60.886 24.5822 59.5169C24.8425 58.7775 25.1712 58.0656 25.774 57.5179C25.8014 57.6822 25.8836 57.7918 26.0753 57.7918C26.6781 57.8055 27.2671 57.7644 27.8425 57.915Z" fill="#B1B3B6"/>
<path d="M30.8973 30.3266C30.9384 30.4088 30.9932 30.4772 31.0069 30.5594C31.9795 35.6389 35.9795 40.253 41.7603 41.8275C47.5 43.3883 53.6507 41.54 57.4863 37.0765C58.6918 35.6663 59.6096 34.0781 60.1987 32.3256C60.3082 31.9833 60.4589 31.6821 60.6918 31.422C61.048 31.0112 61.3356 30.5457 61.6096 30.0665C61.6781 29.9296 61.7192 29.779 61.8699 29.6968C61.9658 29.779 61.911 29.8885 61.8973 29.9843C60.9521 35.9812 56.911 40.1297 52.4315 42.0465C50.3767 42.9228 48.226 43.3883 45.9932 43.3883C41.363 43.3883 37.3904 41.7864 34.1301 38.5278C31.9247 36.3235 30.5274 33.6537 29.9247 30.5868C29.911 30.5046 29.9247 30.4225 29.9247 30.3266C30.2397 30.3129 30.5685 30.3266 30.8973 30.3266Z" fill="#B1B3B6"/>
<path d="M94.3768 57.6411C94.5412 57.7507 94.5549 57.9424 94.6097 58.093C95.8562 61.242 97.1028 64.391 98.3494 67.5401C98.4179 67.7181 98.5412 67.8824 98.4864 68.1425C97.9521 68.1425 97.4042 68.1425 96.8562 68.1425C96.7056 68.1425 96.6097 68.0741 96.5686 67.9371C96.4179 67.5264 96.2535 67.1157 96.1028 66.7186C95.8425 66.0203 95.5686 65.3358 95.322 64.6375C95.2535 64.4321 95.1302 64.3774 94.9384 64.3774C93.3905 64.3774 91.8288 64.3774 90.2809 64.3774C90.0754 64.3774 89.9658 64.4732 89.8973 64.6649C89.5275 65.6507 89.1302 66.6228 88.7466 67.5949C88.5001 68.2384 88.596 68.1699 87.911 68.1699C87.6097 68.1699 87.2946 68.1699 86.9932 68.1699C86.7467 68.1699 86.6919 68.0741 86.7877 67.8276C87.2124 66.7734 87.6371 65.7191 88.048 64.6649C88.8836 62.5564 89.7193 60.4342 90.5686 58.3257C90.6371 58.1477 90.6508 57.9424 90.8288 57.8054C90.8699 57.956 90.9384 58.093 91.1302 58.0656C91.5412 58.0382 91.9384 58.1067 92.3357 58.1888C92.3357 58.3668 92.2398 58.5174 92.185 58.6817C91.7603 59.777 91.3357 60.886 90.911 61.9813C90.8562 62.1183 90.7877 62.2689 90.7466 62.4058C90.6782 62.5975 90.733 62.6659 90.9658 62.6796C90.9932 62.6796 91.0069 62.6796 91.0343 62.6796C92.1028 62.6796 93.185 62.6796 94.2535 62.6796C94.3357 62.6796 94.4179 62.6522 94.4864 62.6385C94.5549 62.4058 94.4179 62.2278 94.3494 62.0498C93.9521 60.9682 93.5275 59.8866 93.1165 58.7912C93.048 58.5859 92.911 58.4079 92.9384 58.1751C93.2809 58.1751 93.6234 58.1888 93.9658 58.1751C94.2535 58.1614 94.2809 58.1203 94.3494 57.7644C94.3631 57.737 94.3631 57.6822 94.3768 57.6411Z" fill="#B1B3B6"/>
<path d="M64.2124 33.3388C64.2261 33.5852 64.1028 33.8043 64.0069 34.0233C62.2672 38.4183 59.2809 41.6906 55.1028 43.8949C53.0891 44.9628 50.9521 45.6337 48.6918 45.9212C45.048 46.3867 41.5411 45.9623 38.185 44.4015C36.7329 43.7169 35.4041 42.8407 34.1576 41.8275C33.9247 41.6358 33.7877 41.4304 33.7603 41.1155C33.7466 40.7869 33.6644 40.472 33.6096 40.1571C33.8014 40.0476 33.8562 40.2256 33.9384 40.294C36.2946 42.3888 39.0069 43.7854 42.0754 44.4699C43.9247 44.8807 45.7877 45.0176 47.6781 44.8396C51.4041 44.4973 54.7192 43.1556 57.6096 40.7869C59.9658 38.8564 61.6781 36.4741 62.774 33.6263C62.8425 33.4483 62.8836 33.2566 63.0206 33.0923C63.1165 33.2429 63.185 33.3798 63.4042 33.3525C63.6918 33.3251 63.9521 33.3388 64.2124 33.3388Z" fill="#B1B3B6"/>
<path d="M81.4452 57.5042C81.5548 57.4495 81.5959 57.5316 81.6507 57.6001C82.1028 58.1477 82.4452 58.7639 82.6507 59.4347C83.0891 60.8723 83.1165 62.3236 82.7329 63.7749C82.3356 65.3221 81.3767 66.4448 79.9932 67.2115C79.1987 67.6496 78.3356 67.9098 77.4452 68.033C76.8151 68.1151 76.185 68.1562 75.5411 68.1425C74.6918 68.1288 73.8288 68.1425 72.9795 68.1425C72.8288 68.1425 72.6781 68.1425 72.5137 68.1425C72.3493 68.1425 72.2808 68.033 72.2808 67.8824C72.2808 67.8002 72.2808 67.7044 72.2808 67.6222C72.2808 65.1304 72.2672 62.6249 72.2672 60.133C72.2672 60.0098 72.2945 59.8729 72.3082 59.7496C72.8562 59.7496 73.3904 59.7496 73.9384 59.7496C74.0206 59.955 73.9795 60.1878 73.9795 60.3931C73.9795 62.1867 73.9795 63.9803 73.9795 65.7739C73.9795 65.9519 73.9795 66.1299 73.9795 66.2942C73.9932 66.5132 74.0343 66.568 74.2535 66.568C74.8699 66.568 75.4726 66.568 76.0891 66.568C76.5959 66.5817 77.1028 66.5406 77.5959 66.4448C79.363 66.0888 80.5411 65.0756 81.048 63.3368C81.2672 62.5427 81.2809 61.7349 81.1713 60.9271C81.0069 59.6264 80.4041 58.5722 79.2946 57.8328C79.2261 57.7918 79.1439 57.7507 79.1165 57.6548C79.7055 57.4905 80.3219 57.5316 80.9247 57.5179C81.1028 57.5316 81.2809 57.5179 81.4452 57.5042Z" fill="#B1B3B6"/>
<path d="M20.911 77.7813C20.9658 77.8498 21.0206 77.9183 21.048 77.9867C22.1439 80.7524 23.2398 83.5044 24.3357 86.2701C24.3768 86.3933 24.4726 86.5028 24.4042 86.6808C23.8562 86.7356 23.2946 86.6945 22.7329 86.7082C22.5685 86.7082 22.5137 86.6123 22.4589 86.4754C22.2535 85.9278 22.048 85.3664 21.8288 84.8188C21.6233 84.2711 21.4042 83.7234 21.1987 83.1621C21.1439 82.9978 21.0343 82.9156 20.8562 82.9156C20.3905 82.9156 19.9384 82.9156 19.4726 82.9156C18.4178 82.9156 17.3768 82.9293 16.322 82.9156C16.0069 82.9156 15.8562 82.9978 15.7466 83.299C15.4041 84.2437 15.0206 85.1747 14.6507 86.1058C14.5959 86.2427 14.5274 86.3933 14.4726 86.5302C14.4315 86.6534 14.3494 86.6945 14.2261 86.6945C13.7055 86.6945 13.185 86.6945 12.6781 86.6945C12.5822 86.5576 12.637 86.4617 12.6644 86.3659C13.774 83.5728 14.8973 80.7661 16.0069 77.973C16.0343 77.8909 16.0617 77.8087 16.1576 77.7676C16.2124 78.0415 16.3631 78.1647 16.6507 78.151C16.9932 78.1373 17.3357 78.151 17.6781 78.151C17.6781 78.329 17.5959 78.4796 17.5274 78.6439C17.2535 79.3559 16.9658 80.0678 16.7055 80.7798C16.6507 80.9167 16.5411 81.0399 16.6233 81.2042C16.6644 81.2179 16.7055 81.2453 16.7329 81.2453C17.8699 81.2453 19.0069 81.2453 20.1439 81.2453C20.3631 81.2453 20.4315 81.1631 20.3494 80.9578C20.1028 80.3006 19.8425 79.6571 19.6096 78.9862C19.5137 78.6987 19.3357 78.4385 19.3357 78.1236C19.7192 78.1236 20.1028 78.1236 20.4863 78.1236C20.8151 78.1373 20.8151 78.1236 20.911 77.7813Z" fill="#B1B3B6"/>
<path d="M13.7603 57.7644C13.8562 57.9697 13.8151 58.2025 13.8151 58.4079C13.8151 59.1472 13.8151 59.9002 13.8151 60.6396C13.8151 60.9134 13.8425 60.9271 14.1301 60.9271C15.4178 60.9271 16.7192 60.9271 18.0069 60.9271C18.1849 60.9271 18.363 60.9271 18.5274 60.9271C18.6507 60.9271 18.7192 60.9956 18.7329 61.1325C18.7329 61.1736 18.7329 61.2146 18.7329 61.2694C18.6918 62.6933 18.9795 62.4469 17.5959 62.4606C16.5685 62.4742 15.5411 62.4606 14.5137 62.4606C14.3356 62.4606 14.1575 62.4606 13.9932 62.4742C13.8973 62.4742 13.8425 62.5427 13.8288 62.6385C13.8151 62.7481 13.8151 62.8576 13.8151 62.9671C13.8151 63.9803 13.8151 64.9798 13.8151 65.993C13.8151 66.1025 13.8151 66.212 13.8288 66.3216C13.8425 66.4174 13.8973 66.4722 14.0069 66.4858C14.1849 66.4995 14.363 66.4995 14.5274 66.4995C15.6918 66.4995 16.8425 66.4995 18.0069 66.4995C18.1849 66.4995 18.363 66.4995 18.5274 66.4995C18.6507 66.4995 18.7329 66.5817 18.7329 66.7049C18.7329 67.1157 18.7329 67.5401 18.7329 67.9508C18.7329 68.0467 18.6781 68.1151 18.5685 68.1288C18.4863 68.1425 18.3904 68.1425 18.3082 68.1425C16.3767 68.1425 14.4589 68.1425 12.5274 68.1425C12.4452 68.1425 12.3493 68.1425 12.2671 68.1425C12.1438 68.1288 12.0617 68.0604 12.048 67.9371C12.0343 67.8002 12.0343 67.677 12.0343 67.5401C12.0343 64.4595 12.0206 61.3652 12.0206 58.2846C12.0206 58.1067 11.9932 57.9287 12.0754 57.7644C12.6233 57.8191 13.1849 57.8191 13.7603 57.7644Z" fill="#B1B3B6"/>
<path d="M57.1301 78.0004C57.2123 78.2058 57.1712 78.4385 57.1712 78.6439C57.1712 79.8487 57.1712 81.0536 57.1712 82.2584C57.1712 82.765 57.1986 83.2579 57.3219 83.7508C57.5685 84.7366 58.2123 85.2843 59.2123 85.3664C59.4726 85.3801 59.7329 85.3938 59.9932 85.3664C60.8014 85.2706 61.3767 84.8598 61.6507 84.0657C61.8425 83.518 61.911 82.9567 61.911 82.3817C61.911 81.2726 61.911 80.1499 61.911 79.0409C61.911 78.8219 61.8699 78.6028 61.9521 78.3974C62.5 78.3974 63.048 78.3974 63.5959 78.3974C63.6096 78.5207 63.637 78.6576 63.637 78.7808C63.637 79.9856 63.6233 81.1905 63.6233 82.3953C63.6233 83.1073 63.5274 83.7919 63.3082 84.4628C62.9932 85.4349 62.4178 86.2153 61.4452 86.626C61.2123 86.7219 60.9521 86.804 60.6918 86.8588C59.8014 87.0505 58.911 87.0094 58.0343 86.7492C56.9795 86.4343 56.2671 85.7498 55.8425 84.7366C55.5274 83.9836 55.4178 83.1758 55.3904 82.368C55.363 80.9851 55.3767 79.616 55.3767 78.2331C55.3767 78.151 55.4178 78.0688 55.4452 77.9867C56.0206 78.0004 56.5685 78.0004 57.1301 78.0004Z" fill="#B1B3B6"/>
<path d="M90.9111 77.0831C91.0069 77.6307 90.9384 78.1784 90.9521 78.7124C90.9658 79.616 90.8426 79.4928 91.7604 79.5065C92.9248 79.5202 94.0754 79.5065 95.2398 79.5065C95.3905 79.5065 95.5412 79.5065 95.6919 79.5202C95.7878 79.5338 95.8563 79.6023 95.8563 79.6981C95.8837 80.1363 95.8837 80.5607 95.8426 81.0262C95.5686 81.0262 95.3494 81.0262 95.1302 81.0262C93.9658 81.0262 92.8152 81.0262 91.6508 81.0262C91.5001 81.0262 91.3494 81.0262 91.185 81.0262C91.0343 81.0262 90.9384 81.081 90.9247 81.2453C90.9247 81.2727 90.9247 81.2864 90.9247 81.3137C90.9247 82.4501 90.9247 83.5865 90.9247 84.7229C90.9247 85.0241 90.9658 85.0652 91.2672 85.0652C92.4316 85.0652 93.5823 85.0652 94.7467 85.0652C94.9658 85.0652 95.185 85.0652 95.4042 85.0652C95.8289 85.0789 95.8426 85.0789 95.8426 85.517C95.8426 85.8456 95.8426 86.1742 95.8289 86.5028C95.8289 86.5986 95.7604 86.6671 95.6645 86.6671C95.5549 86.6808 95.4453 86.6808 95.3357 86.6808C93.4042 86.6808 91.4864 86.6808 89.5549 86.6808C89.4453 86.6808 89.3357 86.6671 89.2398 86.6534C89.1302 86.5165 89.1576 86.3933 89.1576 86.2564C89.1439 83.299 89.1439 80.3416 89.1439 77.3843C89.1439 77.2748 89.1302 77.1652 89.2124 77.0694C89.7878 77.0968 90.3494 77.0831 90.9111 77.0831Z" fill="#B1B3B6"/>
<path d="M44.8425 59.8729C44.9795 60.1467 44.8973 60.4342 44.911 60.7081C44.9247 60.8724 44.9932 60.9408 45.1576 60.9408C45.5685 60.9408 45.9932 60.9408 46.4042 60.9408C47.3631 60.9408 48.322 60.9408 49.2946 60.9408C49.4316 60.9408 49.5548 60.9408 49.6918 60.9545C49.7466 60.9682 49.7877 61.023 49.8288 61.064C49.8562 61.0914 49.8562 61.1462 49.8425 61.1873C49.8014 62.7207 50.1302 62.4332 48.6507 62.4606C47.5959 62.4743 46.5548 62.4606 45.5001 62.4606C45.3905 62.4606 45.2809 62.4606 45.1713 62.4606C45.0206 62.4606 44.9247 62.529 44.911 62.6933C44.911 62.7618 44.911 62.8302 44.911 62.885C44.911 63.9392 44.911 64.9798 44.911 66.034C44.911 66.1162 44.911 66.212 44.9247 66.2942C44.9384 66.39 44.9932 66.4585 45.0891 66.4722C45.2672 66.4859 45.4316 66.4859 45.6096 66.4859C46.8151 66.4859 48.0206 66.4859 49.2124 66.4859C49.3494 66.4859 49.4727 66.4859 49.6096 66.4996C49.7329 66.4996 49.8288 66.568 49.8288 66.6912C49.8288 67.102 49.8288 67.5264 49.8288 67.9372C49.8288 68.0604 49.7329 68.1151 49.6096 68.1288C49.4727 68.1288 49.3494 68.1288 49.2124 68.1288C47.3905 68.1288 45.5822 68.1288 43.7603 68.1288C43.6233 68.1288 43.5 68.1288 43.3631 68.1151C43.2398 68.1015 43.1576 68.033 43.1576 67.9098C43.1439 67.8002 43.1439 67.6907 43.1439 67.5812C43.1439 65.1304 43.1302 62.6796 43.1302 60.2289C43.1302 60.1056 43.1576 59.9687 43.1713 59.8455C43.7466 59.8729 44.2946 59.8729 44.8425 59.8729Z" fill="#B1B3B6"/>
<path d="M10.4315 76.1657C10.5958 76.289 10.5684 76.4806 10.6095 76.6449C10.7602 77.3843 10.7465 78.1236 10.541 78.8493C10.3219 79.616 9.86981 80.2184 9.21228 80.6702C8.55475 81.1221 7.80132 81.3822 7.0068 81.437C6.49995 81.478 6.0068 81.4644 5.49995 81.478C5.28077 81.478 5.06159 81.478 4.84241 81.478C4.69173 81.478 4.59584 81.5602 4.58214 81.7108C4.56844 81.8888 4.56844 82.0668 4.56844 82.2311C4.56844 83.477 4.56844 84.7229 4.56844 85.9689C4.56844 86.1468 4.56844 86.3248 4.55474 86.4891C4.55474 86.585 4.48625 86.6671 4.39036 86.6671C3.9383 86.6671 3.47255 86.6671 3.0205 86.6671C2.92461 86.6671 2.86981 86.585 2.85611 86.4891C2.84241 86.3522 2.84241 86.229 2.84241 86.0921C2.84241 83.2853 2.82872 80.4923 2.82872 77.6855C2.82872 77.5075 2.78762 77.3295 2.89721 77.1789C3.44515 77.1789 4.0068 77.1926 4.55474 77.1926C4.55474 77.7403 4.56844 78.2879 4.56844 78.8219C4.56844 79.1094 4.56844 79.3832 4.56844 79.6708C4.56844 79.8214 4.65063 79.9172 4.81502 79.9172C5.59584 79.9309 6.39036 79.9446 7.17118 79.8077C7.32187 79.7803 7.47255 79.7392 7.60954 79.6845C8.43146 79.3832 8.86981 78.7808 8.92461 77.9046C8.95201 77.5075 8.88351 77.1241 8.76022 76.7408C8.71913 76.6449 8.69173 76.5354 8.66433 76.4396C9.13009 76.4396 9.59584 76.4259 10.0616 76.4259C10.2945 76.4533 10.3767 76.33 10.4315 76.1657Z" fill="#B1B3B6"/>
<path d="M65.9932 58.9692C66.0617 59.1061 66.048 59.2704 66.048 59.421C66.048 62.132 66.0343 64.8429 66.0343 67.5538C66.0343 68.1288 66.0343 68.1425 65.4589 68.1288C65.1165 68.1288 64.7329 68.2247 64.4178 68.0741C64.1028 67.9235 63.9932 67.5401 63.8014 67.2526C61.9795 64.5006 60.1713 61.7349 58.3493 58.9829C58.226 58.8049 58.0754 58.6406 58.0206 58.4216C58.3904 58.4216 58.7603 58.4353 59.1165 58.4353C59.4589 58.4353 59.4589 58.4216 59.5548 58.0245C59.7603 58.1341 59.8288 58.3531 59.9521 58.5311C61.2945 60.5574 62.6233 62.5838 63.9521 64.5964C64.0617 64.7744 64.1576 64.9661 64.3767 65.1441C64.4452 64.8976 64.4178 64.706 64.4178 64.5143C64.4041 62.8987 64.3904 61.2831 64.3767 59.6675C64.3767 59.4347 64.3356 59.1883 64.4178 58.9555C64.9384 58.9692 65.4726 58.9692 65.9932 58.9692Z" fill="#B1B3B6"/>
<path d="M80.1028 78.3974C80.0754 78.5207 80.0617 78.6576 80.0069 78.7808C79.0617 81.2727 78.1165 83.7508 77.1576 86.2427C77.1302 86.3248 77.0891 86.407 77.0617 86.4891C77.0069 86.6671 76.8973 86.7219 76.7193 86.7219C76.4179 86.7219 76.1165 86.7219 75.8425 86.7219C75.6508 86.6123 75.6234 86.448 75.5823 86.3111C74.596 83.7234 73.6097 81.1357 72.6234 78.548C72.5823 78.4248 72.5001 78.3153 72.5412 78.1784C72.8151 78.1784 73.1028 78.1784 73.3768 78.151C73.6782 78.1373 73.8288 77.9456 73.8562 77.6444C74.0343 77.7676 74.048 77.9867 74.1165 78.1647C74.7877 79.9172 75.4453 81.6697 76.1028 83.4222C76.1713 83.6002 76.1987 83.8056 76.3494 83.9288C76.5001 83.9562 76.4727 83.833 76.5138 83.7782C76.5549 83.7097 76.5823 83.6139 76.6097 83.5317C77.2261 81.9025 77.8425 80.2732 78.459 78.6439C78.5412 78.4385 78.5549 78.2194 78.7329 78.0688C78.7603 78.2605 78.7877 78.4385 79.0754 78.4248C79.4179 78.3837 79.7603 78.3974 80.1028 78.3974Z" fill="#B1B3B6"/>
<path d="M2.19863 58.9555C2.29452 59.1883 2.23973 59.4347 2.23973 59.6675C2.23973 61.7486 2.23973 63.8297 2.22603 65.9108C2.22603 66.5543 2.19863 66.5132 2.84247 66.5132C3.86986 66.5132 4.89726 66.5132 5.92466 66.5132C6.07535 66.5132 6.22603 66.5132 6.37672 66.5269C6.47261 66.5406 6.5274 66.6091 6.5411 66.7049C6.5548 66.7871 6.5548 66.8829 6.5548 66.9651C6.5274 67.3347 6.62329 67.7044 6.5 68.0604C6.14384 68.2247 5.77398 68.1288 5.40411 68.1425C3.97945 68.1562 2.5548 68.1425 1.13014 68.1425C0.993151 68.1425 0.869863 68.1425 0.732877 68.1425C0.568493 68.1425 0.5 68.0467 0.5 67.8961C0.5 67.8139 0.5 67.7181 0.5 67.6359C0.5 64.8429 0.5 62.0635 0.5 59.2841C0.5 59.1746 0.541096 59.0788 0.554795 58.9692C1.10274 58.9692 1.65069 58.9555 2.19863 58.9555Z" fill="#B1B3B6"/>
<path d="M37.0891 76.1657C37.2945 76.4122 37.3219 76.7134 37.3767 77.0146C37.4863 77.5349 37.5 78.0552 37.4178 78.5754C37.185 80.191 35.8699 81.437 34.2123 81.6697C34.0617 81.6971 33.911 81.6971 33.7055 81.7245C33.911 82.1079 34.1713 82.4091 34.3904 82.7103C34.637 83.0526 34.8836 83.3812 35.1302 83.7098C35.363 84.0247 35.5959 84.3396 35.8425 84.6545C36.0891 84.9831 36.3356 85.3254 36.5822 85.6539C36.8151 85.9689 37.0617 86.2564 37.2534 86.585C37.2123 86.6397 37.1986 86.6671 37.185 86.6671C36.8151 86.6808 36.4452 86.6945 36.0754 86.6808C35.774 86.6808 35.4315 86.7903 35.1713 86.6124C34.9521 86.4617 34.8151 86.1742 34.6507 85.9415C33.5137 84.3943 32.3767 82.8335 31.2534 81.2727C31.1302 81.0947 31.0069 80.9167 30.8973 80.7524C30.9521 80.5744 31.0754 80.6018 31.1713 80.6018C31.9384 80.6018 32.7055 80.5744 33.4589 80.4786C33.7192 80.4512 33.9795 80.3964 34.226 80.3143C35.0343 80.0404 35.5548 79.4791 35.7055 78.6302C35.8288 77.9319 35.8151 77.2337 35.4041 76.6039C35.363 76.5491 35.363 76.4806 35.3356 76.4259C35.8014 76.4259 36.2671 76.4122 36.7329 76.4122C36.9658 76.4533 37.048 76.3437 37.0891 76.1657Z" fill="#B1B3B6"/>
<path d="M44.9247 78.1373C45.0206 78.4796 44.9521 78.8356 44.9658 79.1779C44.9795 79.4791 44.9932 79.5065 45.3219 79.5065C46.4178 79.5065 47.5137 79.5065 48.6096 79.5065C49.7192 79.5065 49.5411 79.3832 49.5548 80.4375C49.5685 81.0673 49.5548 81.0262 48.9247 81.0262C47.8562 81.0262 46.774 81.0262 45.7055 81.0262C45.5274 81.0262 45.3493 81.0262 45.1849 81.0262C45.0617 81.0262 44.9795 81.0947 44.9795 81.2179C44.9795 81.3959 44.9658 81.5739 44.9658 81.7382C44.9658 83.1347 44.9658 84.5449 44.9658 85.9415C44.9658 86.1194 44.9658 86.2974 44.9658 86.4617C44.9658 86.585 44.8836 86.6534 44.7603 86.6671C44.6781 86.6671 44.5822 86.6808 44.5 86.6671C44.1165 86.6397 43.7192 86.7219 43.3356 86.6123C43.1849 86.229 43.2671 85.8456 43.2671 85.4486C43.2534 83.2169 43.2534 80.9851 43.2534 78.7534C43.2534 78.5344 43.2123 78.3153 43.2945 78.1099C43.8288 78.1373 44.3767 78.1373 44.9247 78.1373Z" fill="#B1B3B6"/>
<path d="M27.8425 57.915C27.2671 57.7644 26.6781 57.8055 26.089 57.8055C25.8972 57.8055 25.8151 57.7096 25.7877 57.5316C27.1438 55.8886 28.8972 55.1219 31.0068 55.1082C31.9246 55.1082 32.8425 55.2178 33.7055 55.5601C35.0479 56.094 35.9794 57.0387 36.5959 58.3257C36.5137 58.49 36.3904 58.4353 36.2945 58.4353C36.0068 58.449 35.7329 58.4353 35.4452 58.4353C35.1575 58.4353 34.8699 58.4763 34.5959 58.4079C34.3356 58.3531 34.2534 58.0382 34.0616 57.8602C33.7055 57.5316 33.3082 57.2578 32.8562 57.1072C31.7466 56.7238 30.637 56.6691 29.5137 56.9977C28.9657 57.162 28.4863 57.4632 28.0205 57.7918C27.9383 57.7781 27.8972 57.8055 27.9109 57.8876L27.8425 57.915Z" fill="white"/>
<path d="M73.9521 59.7496C73.4041 59.7496 72.8699 59.7496 72.3219 59.7496C72.3082 58.312 72.2671 56.8744 72.3219 55.4368C73.9521 55.4368 75.5822 55.4505 77.2124 55.4505C77.2809 55.4505 77.3356 55.4231 77.4041 55.4231C78.8151 55.5327 80.0617 56.0529 81.0754 57.0524C81.0617 57.1346 81.0891 57.1619 81.1713 57.1483L81.2124 57.1893C81.1987 57.2715 81.2261 57.2989 81.3083 57.2852C81.3767 57.3536 81.4589 57.4084 81.4452 57.5179C81.2672 57.5316 81.1028 57.5453 80.9247 57.5453C80.3219 57.559 79.7192 57.5042 79.1165 57.6822C78.1028 57.1619 77.0343 56.9566 75.911 56.984C75.363 56.9976 74.8288 56.984 74.2808 56.984C73.9932 56.984 73.9795 56.9976 73.9795 57.2852C73.9658 58.093 73.9658 58.9145 73.9521 59.7496Z" fill="white"/>
<path d="M71.3357 76.1657C71.3494 76.3163 71.3768 76.4669 71.3768 76.6176C71.4042 79.7392 71.4316 82.8746 71.4727 85.9962C71.4727 86.0647 71.4727 86.1331 71.4727 86.1879C71.4727 86.6808 71.4727 86.6945 70.9658 86.6945C70.637 86.6945 70.3083 86.6945 69.9795 86.6808C69.8836 86.6808 69.8151 86.6123 69.8151 86.5165C69.8014 86.3796 69.8014 86.2564 69.8014 86.1194C69.8014 82.9704 69.7877 79.8214 69.7877 76.6723C69.7877 76.4943 69.8151 76.33 69.8288 76.152C70.3357 76.2068 70.8288 76.2068 71.3357 76.1657Z" fill="#B1B3B6"/>
<path d="M37.0891 76.1657C37.048 76.3437 36.9521 76.4533 36.7329 76.4533C36.2671 76.4533 35.8014 76.467 35.3356 76.467C34.7603 75.8645 34.0206 75.6044 33.226 75.5359C32.4589 75.4812 31.6918 75.4949 30.9247 75.4812C30.774 75.4812 30.6781 75.5496 30.6781 75.7139C30.6781 76.0836 30.6781 76.4533 30.6644 76.8229C30.6644 77.0831 30.6507 77.3432 30.637 77.6033C30.089 77.5897 29.5411 77.5897 28.9932 77.576C28.9795 76.467 28.9658 75.3443 28.9658 74.2352C28.9658 73.9614 29.0069 73.9066 29.2534 73.9066C30.6781 73.9066 32.1027 73.9066 33.5137 73.934C34.2123 73.9477 34.8973 74.1257 35.5274 74.4406C36.2671 74.8377 36.8288 75.3716 37.0891 76.1657Z" fill="white"/>
<path d="M57.5685 58.312C57.5822 58.4353 57.6096 58.5722 57.6096 58.6954C57.6507 61.6664 57.6918 64.6375 57.7192 67.5949C57.7192 67.7044 57.7192 67.8139 57.7192 67.9235C57.7055 68.0467 57.6507 68.1288 57.5137 68.1288C57.4726 68.1288 57.4315 68.1425 57.3767 68.1288C56.9384 68.1014 56.5137 68.1973 56.0753 68.0741C55.8836 67.6633 55.9931 67.2252 55.9931 66.8008C55.9794 64.1994 55.9794 61.6117 55.9794 59.0103C55.9794 58.7775 55.9383 58.5311 56.0205 58.2983C56.5411 58.2983 57.0479 58.312 57.5685 58.312Z" fill="#B1B3B6"/>
<path d="M29.0068 77.6033C29.5548 77.617 30.1027 77.617 30.6507 77.6307C30.7466 77.8224 30.6918 78.0141 30.7055 78.2058C30.7329 78.9862 30.637 79.7803 30.7466 80.5607C30.6233 82.4775 30.7192 84.408 30.6781 86.3248C30.6781 86.3933 30.6781 86.4617 30.6644 86.5165C30.6507 86.6123 30.5959 86.6808 30.5 86.6808C30.0479 86.6808 29.5822 86.6808 29.1301 86.6808C29.0342 86.6808 28.9794 86.6123 28.9658 86.5165C28.9521 86.3796 28.9521 86.2564 28.9521 86.1194C28.9521 83.4496 28.9384 80.7798 28.9384 78.1236C28.9521 77.9456 28.9247 77.7676 29.0068 77.6033Z" fill="#B1B3B6"/>
<path d="M44.8425 59.8729C44.2945 59.8729 43.7329 59.8729 43.185 59.8729C43.1576 58.3942 43.1302 56.9292 43.185 55.4505C43.5137 55.4505 43.8425 55.4505 44.1713 55.4505C46.048 55.4505 47.9247 55.4505 49.8014 55.4368C49.8151 55.4779 49.8288 55.519 49.8288 55.5601C49.8151 55.9708 49.8014 56.3815 49.8014 56.7923C49.4041 56.9566 48.9932 56.8607 48.5822 56.8607C47.3767 56.8744 46.185 56.8744 44.9795 56.8744C44.8425 56.8744 44.8425 56.8744 44.8836 56.9977C44.8699 57.9561 44.8562 58.9145 44.8425 59.8729Z" fill="white"/>
<path d="M4.55483 77.22C4.00689 77.22 3.44524 77.2063 2.8973 77.2063C2.8836 76.2068 2.8699 75.2073 2.8562 74.2079C2.8562 73.9888 2.8973 73.934 3.13017 73.934C4.45894 73.934 5.78771 73.934 7.11648 73.9614C7.70552 73.9751 8.28086 74.1257 8.81511 74.3722C9.47264 74.6734 9.99319 75.1115 10.2672 75.7961C10.2261 75.9193 10.2672 76.0151 10.3905 76.0699C10.4178 76.0973 10.4178 76.1384 10.4178 76.1794C10.3631 76.3574 10.2809 76.4806 10.0617 76.4806C9.59593 76.4806 9.13018 76.4806 8.66442 76.4943C8.23977 75.9193 7.65072 75.6455 6.97949 75.5359C6.8699 75.399 6.70552 75.399 6.55483 75.399C6.14387 75.399 5.71922 75.3853 5.30826 75.3853C5.08908 75.3853 4.8699 75.3853 4.65072 75.4127C4.55483 75.4264 4.51374 75.5085 4.51374 75.6044C4.54113 76.1247 4.55483 76.6723 4.55483 77.22Z" fill="white"/>
<path d="M82.8562 77.3432C82.9384 77.4801 82.911 77.6444 82.911 77.795C82.911 80.6018 82.8973 83.3949 82.8973 86.2016C82.8973 86.3111 82.8973 86.4207 82.8836 86.5302C82.8699 86.626 82.8151 86.6945 82.7192 86.6945C82.5412 86.7082 82.3631 86.7082 82.1987 86.7082C81.9247 86.6945 81.5686 86.8177 81.3768 86.6397C81.1713 86.448 81.3083 86.0921 81.3083 85.8182C81.322 83.2169 81.3357 80.6155 81.3631 78.0141C81.3631 77.795 81.322 77.576 81.4042 77.3706C81.8836 77.3432 82.3768 77.3432 82.8562 77.3432Z" fill="#B1B3B6"/>
<path d="M44.9246 78.1373C44.3767 78.1373 43.8288 78.1373 43.2808 78.1373C43.2671 76.8503 43.2534 75.5633 43.2534 74.2763C43.2534 73.9477 43.2671 73.9203 43.5685 73.9203C45.4452 73.9203 47.3219 73.9203 49.1986 73.9203C49.2397 73.9203 49.2808 73.9203 49.3356 73.9203C49.4589 73.934 49.5411 73.9888 49.5411 74.112C49.5411 74.5228 49.5822 74.9335 49.5 75.3442C48.1712 75.3442 46.8288 75.3442 45.5 75.3306C45.363 75.3306 45.2397 75.3306 45.1027 75.3579C45.0479 75.3716 45.0068 75.4401 44.9657 75.4812C44.952 76.3848 44.9383 77.2611 44.9246 78.1373Z" fill="white"/>
<path d="M17.7055 78.1373C17.363 78.1373 17.0206 78.1236 16.6781 78.1373C16.3904 78.151 16.2397 78.0278 16.1849 77.754C16.1849 77.7129 16.1986 77.6718 16.226 77.6307C16.363 77.5897 16.3767 77.4938 16.3356 77.3843C16.3904 77.2474 16.4315 77.1105 16.4863 76.9735C16.6096 76.9325 16.637 76.8366 16.5959 76.7134C16.8151 76.1384 17.048 75.5633 17.2671 75.002C17.3904 74.9472 17.4178 74.8514 17.3767 74.7418C17.3767 74.7144 17.3767 74.7008 17.3904 74.6734C17.7603 73.7834 17.5137 73.9477 18.4315 73.934C18.6918 73.934 18.9521 73.934 19.226 73.934C19.3767 73.934 19.4726 73.9888 19.5137 74.1394C19.5822 74.3448 19.6644 74.5501 19.7466 74.7555C19.7192 74.865 19.7329 74.9609 19.8562 75.0157C20.089 75.6181 20.3219 76.2342 20.5548 76.8366C20.5274 76.9188 20.5411 76.9735 20.637 76.9872C20.6507 77.0283 20.6644 77.0694 20.6781 77.1241C20.637 77.2474 20.6507 77.3432 20.7877 77.3843C20.8425 77.5212 20.8836 77.6581 20.9384 77.795C20.8425 78.151 20.8425 78.151 20.5411 78.151C20.1575 78.151 19.774 78.151 19.3904 78.151C19.2671 77.8498 19.1438 77.5486 19.0343 77.2474C18.911 76.9325 18.7877 76.6039 18.6644 76.289C18.6507 76.2616 18.5959 76.2342 18.5685 76.2342C18.5411 76.2342 18.4863 76.2616 18.4726 76.289C18.1986 76.9051 17.9521 77.5212 17.7055 78.1373Z" fill="white"/>
<path d="M90.911 77.0831C90.3494 77.0831 89.7877 77.0968 89.2398 77.0968C89.2261 76.1384 89.2124 75.1799 89.2124 74.2079C89.2124 73.9477 89.2398 73.934 89.5275 73.9203C89.8288 73.9203 90.1439 73.9203 90.4453 73.9203C92.0206 73.9203 93.596 73.9203 95.1713 73.9203C95.3494 73.9203 95.5275 73.9203 95.6919 73.9203C95.7878 73.9203 95.8699 73.9614 95.8562 74.0709C95.8425 74.5091 95.9247 74.9472 95.8015 75.3716C95.6097 75.3579 95.4042 75.3442 95.2124 75.3442C94.0069 75.3442 92.8151 75.3442 91.6097 75.3442C91.4316 75.3442 91.2672 75.3442 91.0891 75.3716C91.0343 75.3716 90.9932 75.4401 90.9521 75.4812C90.9384 76.0288 90.9247 76.5491 90.911 77.0831Z" fill="white"/>
<path d="M82.8562 77.3432C82.3768 77.3432 81.8836 77.3432 81.4041 77.3432C81.4041 76.7271 81.4041 76.1247 81.4041 75.5085C81.5274 75.4127 81.5274 75.3032 81.4315 75.1936C81.4178 75.1663 81.3494 75.1663 81.322 75.1663C81.2124 75.2073 81.185 75.3169 81.1987 75.4264C81.1987 75.4401 81.2124 75.4675 81.2124 75.4812C80.9795 76.0973 80.7329 76.7134 80.5 77.3432C80.3767 77.3843 80.3767 77.4664 80.4041 77.5623L80.3905 77.6033C80.2535 77.6444 80.2398 77.7403 80.2809 77.8498C80.2124 78.0278 80.1576 78.2058 80.0891 78.3701C79.7466 78.3701 79.4041 78.3564 79.0754 78.3838C78.8014 78.3974 78.774 78.2195 78.7329 78.0278C78.7877 77.8909 78.8288 77.7539 78.8836 77.617C79.0206 77.576 79.0343 77.4801 78.9932 77.3569C79.0069 77.3158 79.0206 77.2747 79.0206 77.2337C79.1576 77.1926 79.1713 77.0968 79.1302 76.9735C79.4726 76.0288 79.8288 75.0978 80.1576 74.1531C80.2261 73.9751 80.3357 73.9203 80.5 73.9203C81.1987 73.9203 81.8973 73.9203 82.5959 73.9203C82.8288 73.9203 82.8836 73.9751 82.8836 74.1805C82.8836 75.2484 82.8699 76.289 82.8562 77.3432Z" fill="white"/>
<path d="M13.7603 57.7644C13.1986 57.8054 12.637 57.8191 12.0616 57.7644C12.0342 56.9976 12.0068 56.2172 12.0753 55.4505C12.7466 55.4505 13.4315 55.4505 14.1027 55.4368C15.6233 55.4368 17.1575 55.4231 18.6781 55.4231C18.7603 55.8749 18.7055 56.3268 18.7055 56.7786C18.5685 56.9155 18.4041 56.8607 18.2534 56.8607C16.9931 56.8607 15.7192 56.8607 14.4589 56.8607C14.2397 56.8607 14.0205 56.8197 13.8014 56.9155C13.7877 57.203 13.774 57.4905 13.7603 57.7644Z" fill="white"/>
<path d="M71.3356 76.1657C70.8288 76.2068 70.3356 76.2068 69.8288 76.1657C69.8288 75.4675 69.8288 74.7829 69.8151 74.0846C69.8836 74.0709 69.911 74.0162 69.9247 73.9477C70.7877 73.9066 71.637 73.934 72.5137 73.9203C72.6233 74.2215 72.7192 74.4817 72.8151 74.7418C72.774 74.9061 72.8151 75.0293 72.9521 75.1115C73.1301 75.5907 73.3082 76.0699 73.4863 76.5491C73.4452 76.6723 73.4726 76.7682 73.5959 76.8229V76.8366C73.5548 76.9462 73.5685 77.042 73.6918 77.0831C73.7055 77.1241 73.7192 77.1789 73.7329 77.22C73.6918 77.3432 73.7055 77.439 73.8425 77.4801C73.8699 77.5212 73.8836 77.5623 73.8699 77.6033C73.8562 77.9046 73.7055 78.0825 73.3904 78.1099C73.1164 78.1236 72.8288 78.1236 72.5548 78.1373C72.2123 77.3569 71.911 76.5628 71.637 75.7687C71.6781 75.6455 71.6507 75.5633 71.5274 75.5085C71.5 75.4812 71.4863 75.4401 71.5 75.399C71.4863 75.3442 71.5 75.2758 71.4726 75.221C71.4452 75.1663 71.363 75.1389 71.3082 75.1936C71.2397 75.2621 71.2397 75.3443 71.3493 75.3853C71.3493 75.6455 71.3356 75.9056 71.3356 76.1657Z" fill="white"/>
<path d="M57.5685 58.312C57.048 58.312 56.5411 58.312 56.0206 58.312C56.0069 57.4358 56.0069 56.5595 55.9932 55.6833C55.9932 55.382 56.0206 55.3547 56.3356 55.3547C56.7329 55.3547 57.1302 55.3684 57.5137 55.3547C57.7466 55.341 57.8699 55.4505 57.9932 55.6285C58.5137 56.4363 59.0343 57.2441 59.5548 58.0519C59.4726 58.4489 59.4726 58.4489 59.1165 58.4626C58.7466 58.4626 58.3767 58.4489 58.0206 58.4489C57.9795 58.4216 57.9658 58.3805 57.9658 58.3394C57.9795 58.2573 57.9384 58.2025 57.8562 58.1888L57.8425 58.1614C57.8699 58.0793 57.8425 58.0382 57.7603 58.0519C57.7192 58.0382 57.6918 57.9971 57.6781 57.956C57.7055 57.9013 57.6781 57.8602 57.6233 57.8602C57.5685 57.8602 57.5548 57.915 57.5822 57.956C57.5959 58.0656 57.5822 58.1888 57.5685 58.312Z" fill="white"/>
<path d="M94.3768 57.6412C94.3631 57.6822 94.3631 57.7233 94.3494 57.7644C94.2809 58.1204 94.2535 58.1614 93.9658 58.1751C93.6234 58.1888 93.2809 58.1751 92.9384 58.1751C92.8562 57.9834 92.7603 57.7918 92.6781 57.6001C92.6508 57.5727 92.6371 57.5179 92.6097 57.5179C92.5412 57.5179 92.5275 57.5727 92.5412 57.6412C92.4727 57.8191 92.4042 57.9834 92.3494 58.1614C91.9521 58.0793 91.5549 58.0108 91.1439 58.0382C90.9521 58.0519 90.8836 57.9287 90.8425 57.7781C91.1165 57.0524 91.4042 56.3268 91.6781 55.5874C91.7466 55.4094 91.8699 55.3136 92.0754 55.3273C92.4727 55.341 92.8562 55.341 93.2535 55.3273C93.459 55.3273 93.5686 55.4094 93.6371 55.6011C93.7877 56.0256 93.9658 56.45 94.1165 56.8744C94.0754 57.025 94.1028 57.162 94.2535 57.2441C94.2124 57.3673 94.2398 57.4495 94.3631 57.5042C94.3631 57.5727 94.3768 57.6001 94.3768 57.6412Z" fill="white"/>
<path d="M63.6096 78.4111C63.0616 78.4111 62.5137 78.4111 61.9657 78.4111C61.9657 76.9735 61.952 75.5359 61.952 74.0983C61.9931 74.0572 62.0205 74.0162 62.0616 73.9614C62.5137 73.9614 62.9657 73.9477 63.4315 73.934C63.5959 73.934 63.6644 74.0162 63.6507 74.1805C63.6507 74.9609 63.6507 75.7413 63.637 76.5217C63.6233 77.1515 63.6096 77.7813 63.6096 78.4111Z" fill="white"/>
<path d="M57.1302 78.0004C56.5685 78.0004 56.0206 78.0004 55.4589 77.9867C55.4452 76.7408 55.4315 75.4949 55.4178 74.2489C55.4178 73.9751 55.4589 73.9066 55.7055 73.9203C56.1713 73.9477 56.6507 73.8245 57.1165 74.0025C57.2124 74.4269 57.1576 74.865 57.1576 75.3032C57.1576 76.2068 57.1302 77.1104 57.1302 78.0004Z" fill="white"/>
<path d="M30.8973 30.3266C30.5685 30.3266 30.2398 30.3129 29.8973 30.3129C29.4315 27.8896 29.7192 24.9733 30.3219 23.344C30.4589 23.3303 30.5137 23.4261 30.5685 23.522C30.7466 23.7958 30.8562 24.1107 30.9521 24.4256C31.0069 24.6036 30.9932 24.7542 30.9521 24.9322C30.5685 26.5478 30.6233 28.1771 30.8288 29.8201C30.8699 29.9843 30.8836 30.1623 30.8973 30.3266Z" fill="white"/>
<path d="M65.9932 58.9692C65.4726 58.9692 64.9384 58.9692 64.4178 58.9692C64.3904 57.8739 64.363 56.7923 64.3356 55.697C64.3356 55.3958 64.3767 55.341 64.6644 55.341C65.0617 55.341 65.4452 55.341 65.8425 55.341C65.9384 55.341 65.9932 55.4094 66.0206 55.5053C66.0343 55.5464 66.0343 55.5874 66.0343 55.6422C66.0069 56.7512 66.0069 57.8602 65.9932 58.9692Z" fill="white"/>
<path d="M64.2124 33.3388C63.9521 33.3388 63.7055 33.3388 63.4453 33.3525C63.2261 33.3798 63.1439 33.2292 63.0617 33.0923C63.1439 32.8322 63.2124 32.5721 63.2946 32.3119C63.4042 32.2845 63.4042 32.2845 63.3494 32.175C63.3768 32.0381 63.4042 31.9149 63.4316 31.7779C63.5138 31.7506 63.5275 31.6958 63.4864 31.6136C63.5823 30.9291 63.7603 30.2445 63.8151 29.5462C63.8288 29.423 63.8562 29.2861 63.9521 29.1903C63.9658 29.1766 63.9795 29.1629 64.0069 29.1492C64.3494 28.848 64.6918 28.5468 65.0343 28.2455C65.048 28.2318 65.0754 28.2455 65.1028 28.2455C65.185 29.0396 64.9521 30.71 64.596 32.0107C64.5138 32.0381 64.5138 32.0792 64.5549 32.1476C64.5412 32.2298 64.5275 32.3119 64.5001 32.3941C64.3905 32.4214 64.3905 32.4214 64.4453 32.531C64.4042 32.6679 64.3631 32.7911 64.3357 32.928C64.2535 32.9417 64.2535 32.9965 64.2946 33.0649C64.2535 33.1608 64.2261 33.2429 64.2124 33.3388Z" fill="white"/>
<path d="M2.19864 58.9555C1.65069 58.9555 1.10275 58.9692 0.554802 58.9692C0.541103 57.8465 0.527405 56.7375 0.527405 55.6148C0.527405 55.5463 0.554802 55.4916 0.568501 55.4231C1.11645 55.4231 1.65069 55.4368 2.19864 55.4368C2.21234 55.8476 2.22604 56.2583 2.22604 56.6691C2.22604 57.4358 2.21234 58.1888 2.19864 58.9555Z" fill="white"/>
<path d="M18.6781 55.4231C17.1575 55.4231 15.6233 55.4368 14.1027 55.4368C13.4315 55.4368 12.7466 55.4368 12.0753 55.4505C12.089 55.4094 12.1027 55.3547 12.1301 55.341C12.2123 55.3136 12.2945 55.2999 12.3904 55.2999C14.4041 55.2999 16.4041 55.2999 18.4178 55.2999C18.5137 55.3136 18.637 55.2862 18.6781 55.4231Z" fill="#B1B3B6"/>
<path d="M49.8014 55.4368C47.9247 55.4368 46.0479 55.4368 44.1712 55.4505C43.8425 55.4505 43.5137 55.4505 43.1849 55.4505C43.2123 55.4094 43.226 55.3684 43.2534 55.3547C43.3082 55.3273 43.3767 55.3273 43.4452 55.3273C45.5 55.3273 47.5548 55.3273 49.6096 55.3273C49.6918 55.3136 49.774 55.3273 49.8014 55.4368Z" fill="#B1B3B6"/>
<path d="M77.4041 55.4231C77.3356 55.4368 77.2808 55.4505 77.2123 55.4505C75.5822 55.4505 73.952 55.4368 72.3219 55.4368C72.3493 55.3821 72.3767 55.3136 72.4452 55.3136C73.9657 55.3136 75.5 55.3273 77.0205 55.3273C77.1575 55.341 77.2808 55.3958 77.4041 55.4231Z" fill="#B1B3B6"/>
<path d="M90.9521 75.4949C90.9932 75.4538 91.0343 75.3853 91.0891 75.3853C91.2672 75.3716 91.4315 75.3716 91.6096 75.3579C92.8151 75.3579 94.0069 75.3579 95.2124 75.3579C95.4041 75.3579 95.6096 75.3716 95.8014 75.3853C95.6918 75.5496 95.5274 75.4812 95.3904 75.4812C94.1713 75.4812 92.9658 75.4812 91.7466 75.4812C91.4726 75.4812 91.2124 75.4949 90.9521 75.4949Z" fill="#B1B3B6"/>
<path d="M44.9658 75.5085C45.0069 75.4675 45.048 75.399 45.1027 75.3853C45.226 75.3579 45.363 75.3579 45.5 75.3579C46.8288 75.3579 48.1712 75.3579 49.5 75.3716C49.4315 75.5222 49.2808 75.4949 49.1575 75.4949C48.0617 75.4949 46.9795 75.4949 45.8836 75.4949C45.5822 75.4949 45.2671 75.4949 44.9658 75.5085Z" fill="#B1B3B6"/>
<path d="M2.19862 55.4505C1.65067 55.4505 1.11643 55.4368 0.568481 55.4368C0.595879 55.4094 0.609577 55.341 0.636975 55.341C1.11643 55.3273 1.59588 55.3273 2.07533 55.3273C2.14382 55.3136 2.17122 55.3821 2.19862 55.4505Z" fill="#B1B3B6"/>
<path d="M81.2124 75.4949C81.2124 75.4812 81.1987 75.4538 81.1987 75.4401C81.1987 75.3305 81.2124 75.2347 81.322 75.1799C81.3494 75.1663 81.4178 75.1799 81.4315 75.2073C81.5137 75.3169 81.5274 75.4264 81.4041 75.5222C81.3357 75.5085 81.2809 75.5085 81.2124 75.4949Z" fill="#B1B3B6"/>
<path d="M41.4179 7.48924C41.2809 7.65354 41.1028 7.66723 40.911 7.61247C41.0617 7.47555 41.2261 7.44817 41.4179 7.48924Z" fill="#B1B3B6"/>
<path d="M40.8836 7.61247C40.7603 7.79046 40.5822 7.79046 40.3904 7.74939C40.5411 7.61247 40.7055 7.5714 40.8836 7.61247Z" fill="#B1B3B6"/>
<path d="M71.3494 75.3853C71.2398 75.3442 71.2398 75.2758 71.3083 75.1936C71.3631 75.1389 71.4316 75.1663 71.4727 75.221C71.5001 75.2758 71.4864 75.3442 71.5001 75.399C71.4453 75.399 71.4042 75.399 71.3494 75.3853Z" fill="#B1B3B6"/>
<path d="M40.363 7.74939C40.2671 7.89999 40.1438 7.92738 39.9932 7.85892C40.0891 7.74939 40.2123 7.70831 40.363 7.74939Z" fill="#B1B3B6"/>
<path d="M39.9658 7.87261C39.8699 8.02322 39.7466 8.0506 39.5822 7.99583C39.6781 7.85892 39.8151 7.84523 39.9658 7.87261Z" fill="#B1B3B6"/>
<path d="M39.1713 8.13274C39.0891 8.28335 38.9521 8.31073 38.8014 8.25597C38.8973 8.11905 39.0206 8.10536 39.1713 8.13274Z" fill="#B1B3B6"/>
<path d="M38.774 8.26966C38.6918 8.42027 38.5685 8.44765 38.4178 8.40658C38.5137 8.28336 38.637 8.22859 38.774 8.26966Z" fill="#B1B3B6"/>
<path d="M37.1987 8.91316C37.1302 9.06377 37.0206 9.10484 36.8562 9.06377C36.9384 8.94054 37.048 8.88578 37.1987 8.91316Z" fill="#B1B3B6"/>
<path d="M94.2261 57.2578C94.0754 57.1756 94.048 57.0524 94.0891 56.8881C94.1987 56.9977 94.2672 57.1072 94.2261 57.2578Z" fill="#B1B3B6"/>
<path d="M72.9521 75.1252C72.8151 75.0294 72.774 74.9061 72.8151 74.7555C72.911 74.8651 72.9795 74.9746 72.9521 75.1252Z" fill="#B1B3B6"/>
<path d="M16.5959 76.7134C16.637 76.8366 16.6096 76.9188 16.4863 76.9736C16.4452 76.864 16.5 76.7819 16.5959 76.7134Z" fill="#B1B3B6"/>
<path d="M73.6919 77.1105C73.5549 77.0694 73.5549 76.9735 73.596 76.864C73.6782 76.9188 73.7329 77.0009 73.6919 77.1105Z" fill="#B1B3B6"/>
<path d="M38.3904 8.40657C38.3356 8.51611 38.2534 8.55718 38.1301 8.51611C38.1849 8.40657 38.2808 8.37919 38.3904 8.40657Z" fill="#B1B3B6"/>
<path d="M73.8425 77.5075C73.7055 77.4664 73.6918 77.3706 73.7329 77.2474C73.8288 77.3021 73.8699 77.3843 73.8425 77.5075Z" fill="#B1B3B6"/>
<path d="M94.3357 57.5316C94.2124 57.4769 94.185 57.3947 94.2261 57.2715C94.322 57.3399 94.3767 57.4221 94.3357 57.5316Z" fill="#B1B3B6"/>
<path d="M16.3356 77.3843C16.3767 77.5075 16.363 77.5896 16.226 77.6307C16.1849 77.5212 16.2397 77.439 16.3356 77.3843Z" fill="#B1B3B6"/>
<path d="M79.0069 77.3706C79.048 77.4938 79.0343 77.5896 78.8973 77.6307C78.8563 77.5212 78.8973 77.4253 79.0069 77.3706Z" fill="#B1B3B6"/>
<path d="M80.4179 77.576C80.3768 77.4801 80.3768 77.3843 80.5137 77.3569C80.5411 77.4527 80.5001 77.5212 80.4179 77.576Z" fill="#B1B3B6"/>
<path d="M20.7603 77.3706C20.6233 77.3295 20.6096 77.2337 20.6507 77.1104C20.7466 77.1789 20.8014 77.2474 20.7603 77.3706Z" fill="#B1B3B6"/>
<path d="M80.2946 77.8635C80.2535 77.7403 80.2672 77.6581 80.4041 77.617C80.4452 77.7266 80.3904 77.8087 80.2946 77.8635Z" fill="#B1B3B6"/>
<path d="M39.4452 8.02322C39.3904 8.13275 39.3082 8.17382 39.1849 8.11906C39.2534 8.02322 39.3356 7.99583 39.4452 8.02322Z" fill="#B1B3B6"/>
<path d="M79.1439 76.9872C79.185 77.0967 79.1713 77.1926 79.0343 77.2474C78.9932 77.1241 79.048 77.0557 79.1439 76.9872Z" fill="#B1B3B6"/>
<path d="M19.8425 75.002C19.7192 74.9472 19.7055 74.865 19.7329 74.7418C19.8014 74.824 19.8699 74.8924 19.8425 75.002Z" fill="#B1B3B6"/>
<path d="M17.3767 74.7418C17.4041 74.865 17.3904 74.9472 17.2671 75.002C17.2397 74.8924 17.2945 74.8103 17.3767 74.7418Z" fill="#B1B3B6"/>
<path d="M36.0343 9.4745C36.0069 9.59772 35.9384 9.62511 35.8288 9.59772C35.8699 9.51558 35.9247 9.44712 36.0343 9.4745Z" fill="#B1B3B6"/>
<path d="M71.5275 75.5222C71.6507 75.577 71.6781 75.6592 71.637 75.7824C71.5548 75.7139 71.5001 75.6318 71.5275 75.5222Z" fill="#B1B3B6"/>
<path d="M36.2946 9.33758C36.2672 9.46081 36.185 9.48819 36.0754 9.46081C36.1165 9.36497 36.185 9.3102 36.2946 9.33758Z" fill="#B1B3B6"/>
<path d="M10.3904 76.0562C10.2672 76.0014 10.2398 75.9056 10.2672 75.7824C10.3904 75.8508 10.4315 75.933 10.3904 76.0562Z" fill="#B1B3B6"/>
<path d="M36.5548 9.20067C36.5274 9.32389 36.4452 9.35128 36.3356 9.3102C36.3767 9.24175 36.4452 9.17329 36.5548 9.20067Z" fill="#B1B3B6"/>
<path d="M36.8151 9.07745C36.7877 9.20067 36.7055 9.22806 36.5959 9.18698C36.6507 9.10483 36.7055 9.05007 36.8151 9.07745Z" fill="#B1B3B6"/>
<path d="M37.4726 8.78994C37.4178 8.89947 37.3493 8.95423 37.226 8.89947C37.2671 8.78994 37.3493 8.76255 37.4726 8.78994Z" fill="#B1B3B6"/>
<path d="M38.0068 8.55718C37.9657 8.6804 37.8835 8.70778 37.7603 8.66671C37.815 8.57087 37.8972 8.5161 38.0068 8.55718Z" fill="#B1B3B6"/>
<path d="M73.5959 76.8503C73.4726 76.7955 73.4452 76.6997 73.4863 76.5765C73.5822 76.6312 73.6233 76.7271 73.5959 76.8503Z" fill="#B1B3B6"/>
<path d="M57.5959 57.9424C57.5685 57.8876 57.5822 57.8465 57.637 57.8465C57.6918 57.8465 57.7055 57.8876 57.6918 57.9424L57.6507 57.956L57.5959 57.9424Z" fill="#B1B3B6"/>
<path d="M57.7603 58.0382C57.8562 58.0245 57.8699 58.0793 57.8425 58.1477C57.7877 58.1477 57.7466 58.1204 57.7603 58.0382Z" fill="#B1B3B6"/>
<path d="M57.8699 58.1751C57.9521 58.1888 57.9932 58.2299 57.9795 58.3257C57.8836 58.2984 57.8562 58.2573 57.8699 58.1751Z" fill="#B1B3B6"/>
<path d="M81.322 57.2715C81.2398 57.2852 81.2124 57.2578 81.2261 57.1756C81.2946 57.1756 81.322 57.203 81.322 57.2715Z" fill="#B1B3B6"/>
<path d="M81.1849 57.1346C81.1028 57.1483 81.0754 57.1209 81.0891 57.0387C81.1576 57.0387 81.1849 57.0661 81.1849 57.1346Z" fill="#B1B3B6"/>
<path d="M44.8699 56.9977C44.8288 56.8744 44.8288 56.8744 44.9658 56.8744C44.9384 56.9155 44.911 56.9566 44.8699 56.9977Z" fill="#B1B3B6"/>
<path d="M64.2808 33.0786C64.2397 33.0102 64.2397 32.9691 64.3219 32.9417C64.363 32.9691 64.363 33.0102 64.3219 33.0512C64.3219 33.0649 64.2945 33.0786 64.2808 33.0786Z" fill="#B1B3B6"/>
<path d="M64.4316 32.5583C64.3768 32.4488 64.3768 32.4488 64.4864 32.4214C64.5138 32.4762 64.4864 32.531 64.4316 32.5583Z" fill="#B1B3B6"/>
<path d="M27.8835 57.8876C27.8835 57.8054 27.9246 57.7781 27.9931 57.7918C27.9931 57.8602 27.952 57.9013 27.8835 57.8876Z" fill="#B1B3B6"/>
<path d="M62.048 73.9477C62.0069 73.9888 61.9795 74.0299 61.9384 74.0846C61.911 73.9888 61.9384 73.934 62.048 73.9477Z" fill="#B1B3B6"/>
<path d="M35.7739 9.61142C35.7603 9.69357 35.7192 9.72095 35.637 9.69357C35.6507 9.61142 35.6918 9.58404 35.7739 9.61142Z" fill="#B1B3B6"/>
<path d="M64.5412 32.175C64.5001 32.1065 64.5001 32.0655 64.5822 32.0381C64.6233 32.0655 64.6233 32.1065 64.5959 32.1476C64.5822 32.1476 64.5686 32.1613 64.5412 32.175Z" fill="#B1B3B6"/>
<path d="M32.1028 12.117C32.1165 12.1991 32.0754 12.2402 31.9932 12.2128C31.9932 12.1307 32.0206 12.1033 32.1028 12.117Z" fill="#B1B3B6"/>
<path d="M63.4726 31.6273C63.5137 31.6958 63.5 31.7642 63.4178 31.7916C63.3904 31.7095 63.4041 31.6684 63.4726 31.6273Z" fill="#B1B3B6"/>
<path d="M69.9384 73.9477C69.9247 74.0162 69.8973 74.0573 69.8288 74.0846C69.7878 73.9888 69.8151 73.934 69.9384 73.9477Z" fill="#B1B3B6"/>
<path d="M63.3357 32.175C63.3905 32.2845 63.3905 32.2845 63.2809 32.3119C63.2672 32.2571 63.2809 32.2024 63.3357 32.175Z" fill="#B1B3B6"/>
<path d="M20.6096 76.9735C20.5274 76.9598 20.5 76.9051 20.5274 76.8229C20.6096 76.8503 20.637 76.9051 20.6096 76.9735Z" fill="#B1B3B6"/>
<path d="M6.99319 75.5085C6.39045 75.5085 5.78771 75.4949 5.17127 75.4949C4.9521 75.4949 4.73292 75.4675 4.54114 75.577C4.54114 75.4812 4.58223 75.399 4.67812 75.3853C4.8973 75.3716 5.11648 75.3579 5.33566 75.3579C5.74662 75.3579 6.17128 75.3579 6.58223 75.3716C6.71922 75.3716 6.8836 75.3579 6.99319 75.5085Z" fill="#B1B3B6"/>
<path d="M92.6645 57.6138C92.6234 57.6275 92.5686 57.6411 92.5275 57.6548C92.5138 57.5864 92.5275 57.5316 92.596 57.5316C92.6234 57.5316 92.6508 57.5864 92.6645 57.6138Z" fill="#B1B3B6"/>
</g>
<defs>
<clipPath id="clip0_1_1184">
<rect width="107" height="95" fill="white" transform="translate(0.5)"/>
</clipPath>
</defs>
</svg>
