<?xml version="1.0" standalone="no"?>
<!DOCTYPE svg PUBLIC "-//W3C//DTD SVG 20010904//EN"
 "http://www.w3.org/TR/2001/REC-SVG-20010904/DTD/svg10.dtd">
<svg version="1.0" xmlns="http://www.w3.org/2000/svg"
 width="864.000000pt" height="864.000000pt" viewBox="0 0 864.000000 864.000000"
 preserveAspectRatio="xMidYMid meet">
<metadata>
Created by potrace 1.14, written by Peter Selinger 2001-2017
</metadata>
<g transform="translate(0.000000,864.000000) scale(0.100000,-0.100000)"
fill="#000000" stroke="none">
<path d="M3506 8093 c-6 -28 -10 -60 -21 -158 -3 -27 -7 -61 -10 -75 -2 -14
-7 -49 -10 -77 l-6 -53 50 0 c27 0 52 -4 55 -9 7 -11 10 -150 4 -156 -2 -3
-24 -7 -49 -10 -39 -5 -102 -15 -186 -31 -16 -3 -36 -6 -45 -7 -10 -1 -18 -5
-18 -9 0 -4 -7 -5 -15 -2 -8 4 -15 1 -15 -5 0 -6 -6 -8 -13 -5 -8 3 -27 -1
-43 -7 -16 -7 -35 -13 -41 -15 -26 -5 -109 -38 -130 -52 -13 -8 -23 -11 -23
-8 0 9 -164 -80 -255 -139 -149 -96 -341 -273 -435 -400 -25 -33 -47 -62 -50
-65 -15 -14 -93 -144 -127 -210 -80 -157 -126 -291 -159 -455 -2 -11 -6 -31
-9 -44 -24 -124 -24 -401 0 -561 27 -176 70 -317 141 -469 41 -87 110 -209
124 -221 3 -3 17 -23 30 -45 13 -22 29 -44 35 -50 6 -5 29 -32 50 -59 73 -92
223 -235 310 -296 19 -14 48 -35 63 -47 15 -13 32 -23 39 -23 6 0 13 -3 15 -7
12 -28 322 -175 418 -198 8 -3 58 -15 111 -29 52 -13 115 -26 140 -30 24 -3
67 -9 94 -12 28 -4 109 -7 180 -8 118 0 179 4 300 19 69 9 252 56 322 82 38
14 78 28 91 30 12 3 22 9 22 14 0 5 6 9 14 9 22 0 183 86 254 136 35 24 65 44
68 44 3 0 11 6 19 13 7 6 32 28 56 46 68 54 250 239 299 306 166 222 266 440
321 700 7 33 13 62 14 65 1 6 16 123 21 165 9 79 3 276 -11 360 -21 131 -27
155 -36 150 -10 -7 -116 -168 -140 -215 -14 -26 -20 -67 -24 -158 -3 -68 -7
-138 -10 -155 -20 -144 -36 -215 -80 -342 -35 -103 -90 -219 -151 -317 -78
-126 -259 -316 -358 -378 -19 -11 -36 -24 -38 -29 -4 -11 -182 -114 -258 -149
-126 -57 -333 -115 -461 -129 -133 -14 -387 -8 -509 11 -79 13 -233 53 -280
73 -19 8 -43 16 -53 18 -40 9 -199 91 -292 153 -100 66 -315 269 -315 297 0 7
-4 15 -8 17 -15 6 -87 121 -131 208 -36 70 -128 305 -120 305 1 0 -3 23 -9 50
-28 122 -36 208 -37 365 0 242 32 383 137 595 65 132 122 222 213 335 80 99
322 311 400 350 6 3 30 18 55 34 39 26 130 71 240 119 57 25 241 74 311 83 77
10 331 11 414 2 106 -12 232 -41 303 -69 45 -18 68 -28 122 -51 60 -27 65 -26
195 14 39 12 75 23 80 24 6 1 21 6 34 12 l25 9 -30 18 c-16 10 -40 25 -54 34
-36 23 -241 122 -260 125 -3 1 -10 4 -16 8 -6 4 -22 9 -37 12 -15 2 -31 8 -37
11 -15 9 -177 52 -225 59 -22 4 -53 9 -70 11 -16 3 -42 7 -57 9 -44 7 -47 13
-47 79 0 92 3 97 55 97 49 0 48 -3 33 71 -17 88 -20 101 -32 149 -4 14 -9 37
-11 53 -3 15 -7 35 -9 45 -3 9 -8 29 -11 45 l-6 27 -194 0 -194 0 -6 -27z"/>
<path d="M2411 6208 c-7 -23 -14 -53 -16 -67 -2 -14 -7 -42 -10 -61 -11 -55
-12 -255 -3 -318 5 -31 9 -64 10 -72 1 -32 40 -169 69 -243 135 -345 447 -628
818 -743 146 -46 431 -66 576 -42 33 5 69 11 80 12 61 9 201 56 295 99 364
168 636 507 710 885 17 83 9 94 -25 36 -16 -27 -41 -65 -56 -84 -16 -19 -40
-66 -54 -103 -41 -111 -131 -274 -157 -285 -5 -2 -8 -8 -8 -13 0 -5 -8 -17
-17 -28 -86 -90 -145 -150 -169 -169 -47 -38 -147 -107 -174 -120 -14 -6 -32
-16 -40 -21 -76 -43 -214 -92 -330 -117 -132 -27 -426 -24 -505 6 -15 6 -30 9
-32 6 -3 -2 -20 2 -39 10 -19 8 -34 12 -34 10 0 -5 -107 37 -176 70 -58 27
-163 92 -214 133 -48 38 -171 160 -205 201 -63 80 -148 233 -179 323 -52 153
-67 241 -69 392 -1 92 3 138 19 221 6 33 -26 124 -44 124 -5 0 -14 -19 -21
-42z"/>
<path d="M5155 5817 c-28 -25 -48 -53 -50 -67 -12 -101 -52 -271 -68 -281 -5
-3 -8 -8 -7 -10 7 -17 -91 -212 -153 -305 -65 -97 -89 -125 -187 -221 -98 -96
-231 -190 -355 -252 -93 -46 -227 -97 -285 -107 -14 -3 -31 -7 -39 -10 -8 -2
-30 -7 -50 -10 -20 -3 -47 -7 -61 -10 -72 -14 -290 -20 -360 -10 -19 3 -57 8
-85 12 -27 3 -53 8 -57 10 -4 3 -21 7 -37 9 -32 4 -51 9 -171 50 -147 51 -331
157 -444 256 -47 42 -58 40 -51 -7 11 -64 18 -75 77 -121 215 -166 458 -267
714 -299 75 -10 311 -10 388 -1 32 4 90 14 130 23 39 8 82 17 95 20 13 3 49
14 80 25 31 11 61 21 66 23 6 1 32 12 59 24 27 12 50 22 51 22 8 0 194 108
224 130 114 81 222 182 304 281 107 129 246 385 254 468 1 13 8 28 15 32 7 5
10 9 7 9 -4 0 2 34 12 76 11 41 22 94 25 117 10 76 15 167 11 167 -3 0 -26
-19 -52 -43z"/>
<path d="M2314 3685 c-38 -12 -90 -35 -116 -50 -56 -32 -164 -139 -193 -193
-87 -157 -89 -341 -5 -517 38 -80 96 -144 173 -192 96 -60 163 -78 292 -78
139 1 210 17 294 67 56 33 145 131 175 191 30 61 63 187 62 232 l-1 30 -315 0
-315 0 -2 -57 c-1 -46 2 -60 15 -66 9 -4 110 -7 224 -7 114 1 213 -2 220 -6
33 -21 -81 -177 -155 -212 -136 -65 -310 -53 -429 29 -149 104 -197 358 -96
522 33 55 96 119 142 146 88 51 219 65 321 34 48 -14 118 -60 139 -90 13 -19
26 -22 90 -23 42 -1 80 1 86 5 13 8 -36 86 -89 138 -50 49 -146 98 -221 112
-89 17 -218 10 -296 -15z"/>
<path d="M52 3685 c-4 -5 -7 -105 -8 -221 0 -116 -4 -216 -8 -222 -3 -6 -3
-13 2 -16 4 -3 7 -29 5 -58 -5 -58 -5 -59 0 -103 1 -16 -1 -40 -5 -52 -4 -12
-4 -24 0 -27 5 -3 7 -29 5 -58 -5 -58 -5 -59 0 -103 1 -16 -1 -40 -5 -51 -4
-12 -4 -25 0 -28 3 -4 7 -21 8 -39 0 -17 2 -34 3 -37 2 -7 461 -3 468 4 11 10
11 89 1 109 -8 15 -27 17 -173 17 l-165 0 0 143 c-1 512 -3 714 -6 732 -4 17
-13 20 -60 20 -31 0 -59 -4 -62 -10z"/>
<path d="M969 3690 c-2 -7 -9 -230 -9 -255 1 -11 2 -47 3 -80 2 -33 -1 -66 -6
-72 -6 -8 -6 -13 0 -13 4 0 7 -26 6 -57 -2 -32 -3 -65 -3 -73 0 -8 1 -117 2
-242 l1 -228 51 -1 c230 -3 466 0 475 5 13 9 15 113 2 121 -5 3 -93 6 -194 6
-165 0 -186 2 -189 17 -7 29 -2 291 5 299 4 4 89 7 190 8 100 1 185 3 190 3 9
2 9 94 -1 107 -4 7 -75 11 -190 11 -100 1 -185 4 -189 8 -8 8 -13 271 -6 299
4 15 22 17 197 17 l192 0 1 48 c2 80 16 77 -272 77 -140 0 -256 -2 -256 -5z"/>
<path d="M3456 3675 c-2 -11 -4 -240 -3 -510 l2 -490 265 0 265 0 1 58 c1 31
-2 60 -8 63 -5 3 -89 6 -186 6 -97 1 -182 3 -188 5 -7 2 -10 56 -10 158 0 132
3 155 16 156 8 0 94 2 190 3 96 2 178 4 182 4 11 3 7 100 -5 109 -7 5 -94 9
-195 9 -180 -1 -183 -1 -188 21 -3 12 -3 26 0 32 4 5 3 12 -1 14 -5 3 -6 61
-3 129 l5 123 193 3 c105 1 192 6 193 10 0 4 2 31 4 60 3 43 1 52 -13 53 -9 0
-128 1 -264 2 -240 2 -247 1 -252 -18z"/>
<path d="M4483 3688 c-2 -5 -2 -12 2 -17 3 -5 2 -12 -3 -15 -4 -2 -6 -24 -4
-48 6 -83 7 -158 2 -158 -8 0 -4 -755 4 -768 10 -17 122 -16 129 1 6 16 -1
753 -8 787 -5 25 -5 24 20 -5 14 -16 25 -35 25 -42 0 -6 4 -13 8 -15 6 -2 139
-196 150 -219 7 -15 313 -477 330 -498 17 -22 26 -24 78 -22 32 1 61 5 64 7 8
9 6 699 -2 717 -5 9 -5 17 -1 17 14 0 8 271 -6 279 -12 8 -94 6 -115 -2 -7 -3
-10 -28 -9 -63 4 -137 5 -706 0 -710 -2 -3 -31 37 -63 88 -32 51 -61 95 -64
98 -7 7 -50 69 -50 73 0 2 -45 70 -101 153 -55 82 -131 196 -169 254 l-70 105
-71 5 c-39 3 -73 2 -76 -2z"/>
<path d="M5787 3685 c-9 -27 -5 -1005 4 -1011 13 -7 350 -6 394 1 245 42 392
165 438 364 14 58 16 228 4 271 -2 8 -7 29 -12 45 -34 128 -168 262 -307 309
-26 8 -75 18 -110 22 -35 4 -70 8 -78 9 -8 1 -21 -3 -29 -9 -8 -6 -12 -6 -9
-1 4 6 -46 10 -143 10 -90 0 -150 -4 -152 -10z m196 -129 c4 4 47 5 155 3 31
-1 146 -31 177 -47 16 -8 53 -38 81 -67 73 -73 97 -140 97 -270 0 -128 -24
-196 -93 -264 -70 -68 -85 -77 -180 -102 -68 -17 -278 -19 -292 -2 -9 11 -14
104 -8 138 1 6 1 15 0 20 -5 23 -2 103 4 114 4 6 4 11 -1 11 -8 0 -7 108 1
143 2 9 1 17 -2 17 -4 0 -6 68 -6 151 2 158 7 179 45 159 9 -5 19 -7 22 -4z"/>
<path d="M7358 3691 c-13 -4 -33 -31 -31 -41 1 -3 -2 -9 -7 -15 -9 -12 -44
-118 -41 -124 2 -2 -2 -7 -7 -10 -6 -3 -34 -65 -62 -136 -28 -72 -55 -139 -60
-150 -5 -11 -37 -90 -70 -175 -33 -85 -65 -164 -70 -175 -31 -67 -72 -186 -66
-192 4 -4 34 -7 68 -8 73 0 69 -5 133 160 26 66 51 126 57 133 17 20 408 13
418 -8 19 -38 70 -164 74 -185 2 -5 11 -29 20 -52 19 -46 21 -47 115 -44 24 0
47 3 49 6 4 4 -121 334 -163 430 -7 17 -34 84 -60 150 -25 66 -50 129 -54 140
-45 106 -62 150 -86 212 -15 40 -32 76 -38 80 -12 7 -99 11 -119 4z m67 -203
c17 -57 88 -246 101 -270 8 -15 14 -30 13 -33 0 -3 5 -20 12 -36 9 -22 9 -33
1 -38 -13 -8 -279 -7 -288 2 -7 7 27 110 39 115 4 2 7 10 7 18 0 9 18 59 39
112 21 53 42 109 45 125 8 33 22 35 31 5z"/>
<path d="M239 2199 c-11 -6 -19 -947 -9 -990 5 -20 12 -23 58 -23 29 -1 58 2
65 6 8 5 12 65 13 202 0 108 3 198 6 201 3 3 57 8 119 10 63 2 128 8 144 13
100 31 182 107 206 189 16 55 16 206 0 211 -6 2 -11 12 -11 23 0 10 -4 19 -10
19 -5 0 -10 6 -10 13 0 37 -103 107 -180 123 -45 9 -378 12 -391 3z m221 -119
c8 5 17 7 20 5 3 -2 28 -6 56 -9 28 -3 64 -10 80 -16 35 -14 90 -72 92 -97 8
-108 -5 -153 -54 -192 -37 -29 -84 -40 -191 -43 -85 -3 -92 -2 -95 17 -2 11
-3 90 -3 175 l0 154 25 6 c14 4 32 3 41 -1 8 -4 21 -4 29 1z"/>
<path d="M1394 2153 c-13 -29 -24 -55 -24 -58 0 -2 -5 -16 -11 -32 -6 -15 -9
-28 -8 -28 2 0 -4 -13 -13 -30 -25 -48 -42 -89 -39 -99 1 -5 -2 -12 -7 -15 -5
-3 -38 -76 -72 -161 -34 -85 -67 -168 -75 -185 -49 -115 -136 -348 -131 -353
4 -3 35 -6 71 -7 l64 -2 19 41 c11 23 36 86 57 141 21 55 43 105 50 110 8 7
89 11 210 10 165 0 199 -2 206 -15 5 -8 33 -76 61 -150 l53 -135 73 -1 c57 -1
72 2 72 14 0 12 -190 504 -235 607 -7 17 -23 55 -35 85 -12 30 -26 64 -31 75
-31 73 -79 201 -79 211 0 21 -21 28 -88 30 l-64 2 -24 -55z m116 -183 c0 -9 4
-20 9 -25 6 -6 16 -35 24 -65 8 -30 31 -97 51 -149 20 -51 36 -97 36 -102 0
-5 -67 -9 -150 -9 -92 0 -150 4 -150 10 0 8 64 185 87 240 3 8 7 17 8 20 4 12
19 48 38 90 18 41 20 43 33 25 8 -10 14 -26 14 -35z"/>
<path d="M2319 2197 c-1 -7 -2 -234 -3 -505 -1 -326 2 -496 9 -501 16 -12 115
-7 123 6 4 7 8 206 7 444 0 237 3 433 6 435 10 6 57 6 161 1 121 -7 184 -36
217 -103 46 -90 14 -217 -65 -261 -45 -25 -83 -32 -208 -39 -50 -2 -92 -6 -94
-8 -4 -4 207 -300 265 -372 18 -23 33 -45 33 -49 0 -4 13 -20 29 -35 26 -26
34 -28 102 -26 80 3 87 10 48 52 -10 11 -19 25 -19 31 0 6 -4 13 -8 15 -12 4
-210 272 -214 288 -2 8 10 14 32 17 56 7 132 47 178 94 23 23 42 47 42 51 0 5
8 26 18 47 14 29 18 57 16 118 -3 138 -70 237 -191 286 -41 16 -79 19 -265 22
-162 3 -218 0 -219 -8z"/>
<path d="M3466 2202 c-3 -2 -5 -231 -6 -508 l0 -504 22 -1 c26 -1 87 -1 104 0
7 1 10 69 11 210 0 115 2 215 6 223 4 12 34 15 177 14 144 -1 173 1 179 14 6
12 7 67 2 103 -1 4 -79 7 -175 7 -124 0 -177 3 -182 12 -11 18 -11 299 0 306
13 8 56 9 56 2 0 -3 9 -6 20 -6 11 0 20 3 20 6 0 8 53 6 68 -3 6 -5 12 -5 12
0 0 4 29 8 65 8 36 0 65 -4 65 -10 0 -5 5 -4 11 2 6 6 18 9 25 6 14 -5 17 6
16 72 0 17 0 35 -1 41 -1 10 -485 17 -495 6z"/>
<path d="M4442 2201 c-14 -11 -13 -720 2 -781 21 -87 43 -130 91 -176 56 -53
125 -77 225 -79 183 -4 291 89 324 280 7 39 8 743 2 754 -3 4 -33 7 -67 7
l-62 -2 -3 -365 c-3 -446 -10 -486 -97 -528 -80 -39 -201 -17 -241 44 -35 54
-38 89 -41 463 -2 205 -6 376 -10 380 -8 9 -112 11 -123 3z"/>
<path d="M5596 2198 c-9 -5 -12 -118 -10 -500 0 -271 2 -498 3 -503 1 -9 85
-13 123 -6 3 0 4 204 2 451 -2 248 -2 450 0 450 2 0 16 -30 30 -67 14 -38 31
-81 37 -98 7 -16 13 -33 14 -37 2 -5 3 -9 4 -10 2 -2 4 -13 7 -26 2 -13 14
-47 25 -75 32 -78 35 -85 69 -177 17 -47 35 -94 40 -105 4 -11 13 -36 20 -55
7 -19 18 -48 25 -65 7 -16 25 -64 40 -105 16 -41 33 -78 39 -82 16 -11 85 -6
95 6 4 6 14 27 21 46 7 19 19 49 26 65 7 17 40 104 74 195 33 91 67 179 74
195 18 39 46 117 51 141 3 17 19 59 44 119 5 11 17 42 28 69 27 71 38 67 36
-11 -6 -161 -10 -809 -6 -820 6 -16 110 -15 120 0 8 13 7 993 -1 1006 -9 13
-194 10 -206 -4 -5 -6 -23 -49 -40 -96 -17 -46 -40 -106 -50 -134 -10 -27 -37
-97 -59 -155 -23 -58 -51 -130 -62 -160 -11 -30 -24 -64 -29 -75 -5 -11 -20
-53 -35 -92 -15 -40 -30 -73 -34 -73 -8 0 -22 35 -107 260 -47 127 -90 239
-104 275 -23 55 -63 161 -65 170 -1 5 -9 28 -19 51 l-17 41 -95 -1 c-53 -1
-101 -4 -108 -8z"/>
<path d="M7142 2196 c-3 -6 -8 -234 -10 -506 l-3 -495 23 -5 c18 -5 438 -6
499 -1 13 1 16 14 18 61 1 56 0 60 -21 61 -13 1 -97 2 -188 3 -91 1 -170 4
-175 8 -9 5 -14 279 -6 309 0 3 81 5 179 4 97 0 185 1 195 4 15 3 17 12 15 60
l-3 56 -185 3 c-102 1 -189 7 -194 12 -12 12 -15 299 -3 307 15 9 67 10 67 0
0 -4 6 -5 12 -1 19 12 48 12 48 1 0 -6 5 -6 13 0 14 10 187 10 204 0 24 -15
44 23 41 77 l-3 51 -258 1 c-176 1 -260 -3 -265 -10z"/>
</g>
</svg>
